<svg version="1.1" id="Layer_1" xmlns="http://www.w3.org/2000/svg" xmlns:xlink="http://www.w3.org/1999/xlink" x="0px" y="0px"
	 width="100%" viewBox="0 0 400 400" enable-background="new 0 0 400 400" xml:space="preserve">
<path fill="#305B5D" opacity="1.000000" stroke="none" 
	d="
M356.000000,1.000000 
	C370.986603,1.000000 385.973206,1.000000 400.954407,1.000003 
	C400.949005,134.333344 400.949005,267.666687 400.949005,401.000000 
	C386.244446,401.000000 371.590881,401.000000 356.468658,400.587036 
	C356.165344,393.742950 357.129608,392.691193 363.604187,391.898956 
	C363.604187,387.173462 363.604187,382.451355 363.604187,377.740845 
	C357.641754,377.747650 356.013580,376.123962 356.010254,370.274261 
	C355.990173,334.953461 355.994751,299.632690 356.005035,264.311890 
	C356.006927,257.850861 357.253937,256.507416 363.679443,256.009186 
	C363.679443,253.937180 363.679443,251.854538 363.679443,249.778000 
	C357.575897,249.700348 356.018616,248.219574 356.012817,242.433090 
	C355.985291,214.942886 355.990204,187.452637 356.007935,159.962402 
	C356.011871,153.839035 357.457001,152.365860 363.711426,152.135941 
	C363.711426,150.061829 363.711426,147.976883 363.711426,145.904190 
	C357.294617,145.590027 356.008118,144.182861 356.004517,137.583664 
	C355.992706,115.924698 355.994354,94.265717 356.003387,72.606743 
	C356.006226,65.871635 356.974091,64.781654 363.584167,63.858635 
	C363.584167,61.793980 363.584167,59.742046 363.584167,57.444817 
	C359.451385,58.373837 356.414154,56.910564 356.279785,53.230392 
	C356.118713,48.817818 359.786224,47.912910 363.648560,48.286839 
	C363.648560,45.884407 363.648560,43.814110 363.648560,41.751293 
	C357.598602,41.723900 356.067230,40.191864 356.006653,34.366680 
	C355.972015,31.034889 355.989105,27.702400 356.002411,24.370304 
	C356.028473,17.843437 357.289246,16.450504 363.726807,16.055208 
	C363.814056,15.123114 363.991882,14.150373 363.973114,13.181427 
	C363.951263,12.049160 363.757935,10.920207 363.642303,9.821242 
	C357.195099,9.660568 356.055359,8.303189 356.000000,1.000000 
z"/>
<path fill="#2D5557" opacity="1.000000" stroke="none" 
	d="
M355.531342,1.000000 
	C356.055359,8.303189 357.195099,9.660568 363.642303,9.821242 
	C363.757935,10.920207 363.951263,12.049160 363.973114,13.181427 
	C363.991882,14.150373 363.814056,15.123114 363.726807,16.055208 
	C357.289246,16.450504 356.028473,17.843437 356.002411,24.370304 
	C355.989105,27.702400 355.972015,31.034889 356.006653,34.366680 
	C356.067230,40.191864 357.598602,41.723900 363.648560,41.751293 
	C363.648560,43.814110 363.648560,45.884407 363.648560,48.286839 
	C359.786224,47.912910 356.118713,48.817818 356.279785,53.230392 
	C356.414154,56.910564 359.451385,58.373837 363.584167,57.444817 
	C363.584167,59.742046 363.584167,61.793980 363.584167,63.858635 
	C356.974091,64.781654 356.006226,65.871635 356.003387,72.606743 
	C355.994354,94.265717 355.992706,115.924698 356.004517,137.583664 
	C356.008118,144.182861 357.294617,145.590027 363.711426,145.904190 
	C363.711426,147.976883 363.711426,150.061829 363.711426,152.135941 
	C357.457001,152.365860 356.011871,153.839035 356.007935,159.962402 
	C355.990204,187.452637 355.985291,214.942886 356.012817,242.433090 
	C356.018616,248.219574 357.575897,249.700348 363.679443,249.778000 
	C363.679443,251.854538 363.679443,253.937180 363.679443,256.009186 
	C357.253937,256.507416 356.006927,257.850861 356.005035,264.311890 
	C355.994751,299.632690 355.990173,334.953461 356.010254,370.274261 
	C356.013580,376.123962 357.641754,377.747650 363.604187,377.740845 
	C363.604187,382.451355 363.604187,387.173462 363.604187,391.898956 
	C357.129608,392.691193 356.165344,393.742950 356.000000,400.587036 
	C343.312439,401.000000 330.624878,401.000000 317.468658,400.531372 
	C317.644775,391.702332 319.397003,383.234528 318.600128,375.013855 
	C317.904663,367.839142 319.646545,360.701202 318.386139,353.904449 
	C317.239227,347.719910 317.689178,342.178070 318.292053,336.067352 
	C319.002289,328.868530 318.125244,321.382385 318.609711,313.979584 
	C318.848541,310.330811 316.925354,306.544037 317.145020,302.889740 
	C317.533783,296.422241 314.807098,291.858215 310.065979,287.588715 
	C310.655548,282.450470 311.306183,277.725677 312.364563,272.970947 
	C313.514893,271.195221 314.889526,269.454346 314.903198,267.702850 
	C315.055817,248.136185 314.998383,228.567871 315.250305,208.699463 
	C318.439758,199.333038 310.524231,193.011490 309.485992,184.762543 
	C308.480347,176.772430 312.588440,169.656158 311.658966,161.904816 
	C311.617706,161.560852 313.804047,161.195343 314.032196,160.526062 
	C314.642578,158.735291 315.701385,156.052063 314.901978,154.999924 
	C310.529999,149.245789 310.373749,147.662613 314.279541,141.567657 
	C315.106964,140.276443 315.022278,138.253754 314.979004,136.577850 
	C314.820221,130.429428 314.422882,124.307198 319.355438,119.419724 
	C321.032104,117.758354 322.058807,115.483643 318.929596,114.357582 
	C315.813721,113.236320 312.465210,112.761574 309.104218,111.617043 
	C308.716370,110.203407 308.442993,109.176086 308.619507,108.116974 
	C311.307129,106.996269 315.282501,106.170052 315.493439,104.774734 
	C316.644073,97.163658 316.885193,89.413666 317.401886,81.708961 
	C317.576050,79.112129 317.654388,76.508476 317.753448,73.907066 
	C318.059540,65.866318 319.400391,57.681034 318.318695,49.830292 
	C317.472321,43.687447 316.286102,38.058086 318.590729,32.025963 
	C319.341492,30.060839 318.668121,27.478796 318.385284,25.211447 
	C318.084869,22.803017 316.957977,20.401381 317.102600,18.052855 
	C317.453735,12.351244 318.333313,6.682178 319.000000,0.999999 
	C331.020905,1.000000 343.041779,1.000000 355.531342,1.000000 
z"/>
<path fill="#182C37" opacity="1.000000" stroke="none" 
	d="
M73.000000,401.000000 
	C65.312424,401.000000 57.624847,401.000000 49.468636,400.531342 
	C49.000000,267.041779 49.000000,134.020889 49.000000,1.000000 
	C58.020893,1.000000 67.041786,1.000000 76.531342,1.468657 
	C77.333229,36.624573 77.666466,71.311829 77.711365,105.893509 
	C74.047096,105.528496 72.784027,107.501945 73.744217,110.276215 
	C74.583313,112.700615 76.432343,114.775467 77.781113,117.398132 
	C77.767395,120.857040 77.807755,123.922562 77.720505,127.088760 
	C77.421211,127.521706 77.491783,127.796516 77.861649,128.478531 
	C77.880112,150.951416 77.841522,172.959656 77.534622,195.009872 
	C76.843102,195.367905 76.419914,195.683960 75.660675,196.077271 
	C74.756073,197.539444 73.606522,198.974167 73.720253,200.300568 
	C74.194344,205.829437 75.707146,211.334579 75.633232,216.832214 
	C75.450356,230.432190 74.612816,244.023605 74.018921,257.617584 
	C73.903244,260.265503 74.219780,262.436218 77.839203,262.123596 
	C77.864662,263.637299 77.806335,264.742859 77.390457,266.053192 
	C76.688896,267.838654 76.344894,269.419342 75.676514,271.080414 
	C75.234764,272.440582 75.117378,273.720306 75.000443,275.333588 
	C75.000992,276.111816 75.001106,276.556519 74.687698,277.071503 
	C74.582085,278.094971 74.790001,279.048187 74.867004,280.292114 
	C74.491035,281.388397 74.245987,282.193878 74.000534,283.426392 
	C71.885185,322.887024 73.504906,361.952576 73.000000,401.000000 
z"/>
<path fill="#162935" opacity="1.000000" stroke="none" 
	d="
M48.531349,1.000000 
	C49.000000,134.020889 49.000000,267.041779 49.000000,400.531342 
	C40.645767,401.000000 32.291538,401.000000 23.468653,400.531342 
	C23.000000,267.041779 23.000000,134.020889 23.000000,1.000000 
	C31.354233,1.000000 39.708466,1.000000 48.531349,1.000000 
z"/>
<path fill="#132531" opacity="1.000000" stroke="none" 
	d="
M22.531218,1.000000 
	C23.000000,134.020889 23.000000,267.041779 23.000000,400.531342 
	C15.673901,401.000000 8.347801,401.000000 1.041611,401.000000 
	C1.041611,267.666656 1.041611,134.333328 1.041611,1.000000 
	C8.076293,1.000000 15.069365,1.000000 22.531218,1.000000 
z"/>
<path fill="#244248" opacity="1.000000" stroke="none" 
	d="
M189.000000,1.000000 
	C204.354233,1.000000 219.708450,1.000000 235.531342,1.468657 
	C236.000000,13.912096 236.185867,25.891459 235.890991,37.858974 
	C235.797974,41.634724 234.392746,45.373829 233.647354,49.141434 
	C233.497955,49.896614 233.286331,50.965469 233.665497,51.447697 
	C236.716675,55.328045 234.537140,57.792553 231.464355,59.719543 
	C232.046921,61.626659 232.520798,63.177963 232.532379,64.809845 
	C221.378998,64.837769 210.687881,64.785110 199.963074,64.367508 
	C197.538361,60.879803 195.477951,60.435646 193.672058,64.818405 
	C192.893021,64.846573 192.444839,64.790428 191.973907,64.386620 
	C189.010178,61.166901 190.022263,57.553036 189.969650,54.077335 
	C189.701859,36.384052 189.333298,18.692293 189.000000,1.000000 
z"/>
<path fill="#1D3640" opacity="1.000000" stroke="none" 
	d="
M151.000000,401.000000 
	C137.645767,401.000000 124.291542,401.000000 110.468704,400.555481 
	C110.307541,392.694794 110.682388,385.280640 110.904396,377.861877 
	C111.149628,369.667480 111.008324,361.454041 111.501244,353.276978 
	C111.875648,347.066101 113.441643,340.835693 108.825439,334.984222 
	C111.082283,334.993988 113.090538,335.262604 114.897942,336.014160 
	C117.042068,336.905762 118.051979,336.582672 118.382202,334.096497 
	C119.526176,334.338379 120.271919,334.669678 121.045135,334.914093 
	C134.120071,339.046997 147.653885,337.337952 160.969116,338.434448 
	C159.509033,339.551666 158.058517,340.238556 156.652328,341.006592 
	C153.907867,342.505676 151.188171,344.050140 148.458252,345.575806 
	C150.057281,347.428406 151.658234,349.279358 153.250870,351.137451 
	C153.354340,351.258179 153.394119,351.433502 153.623230,351.928558 
	C149.798340,354.755249 150.197678,358.080139 152.294571,362.141357 
	C153.303223,364.094971 152.764053,366.983948 152.525665,369.410034 
	C152.240616,372.311035 151.153412,375.159515 151.072525,378.049194 
	C150.858551,385.694122 151.000000,393.349060 151.000000,401.000000 
z"/>
<path fill="#29494E" opacity="1.000000" stroke="none" 
	d="
M232.994659,64.729263 
	C232.520798,63.177963 232.046921,61.626659 231.464355,59.719543 
	C234.537140,57.792553 236.716675,55.328045 233.665497,51.447697 
	C233.286331,50.965469 233.497955,49.896614 233.647354,49.141434 
	C234.392746,45.373829 235.797974,41.634724 235.890991,37.858974 
	C236.185867,25.891459 236.000000,13.912096 236.000000,1.468657 
	C248.687561,1.000000 261.375122,1.000000 274.531342,1.468657 
	C275.000000,21.422567 275.045288,40.908035 274.951630,60.392838 
	C274.937439,63.347672 274.277557,66.299408 273.532532,69.178864 
	C264.858948,65.997940 256.322449,64.542191 247.441605,64.878471 
	C242.634735,65.060493 237.810867,64.793633 232.994659,64.729263 
z"/>
<path fill="#1B303B" opacity="1.000000" stroke="none" 
	d="
M77.999695,105.999084 
	C77.666466,71.311829 77.333229,36.624573 77.000000,1.468657 
	C87.354225,1.000000 97.708458,1.000000 108.528168,1.410246 
	C106.030777,12.176132 105.645332,22.764326 105.965324,33.446480 
	C106.154854,39.773651 106.025307,46.111279 105.991348,52.443943 
	C105.967621,56.865993 106.853081,61.494156 103.056328,65.094734 
	C102.551987,65.573021 102.228508,66.772064 102.459328,67.404411 
	C103.498337,70.250816 102.544746,71.684731 99.740486,72.594414 
	C98.720299,72.925354 98.056725,74.355606 96.745880,75.828926 
	C99.020622,76.344444 100.584740,76.698914 102.028244,77.373566 
	C98.205360,81.597885 94.257790,85.302780 90.875336,89.466736 
	C87.959930,93.055717 85.688248,97.167618 82.846855,101.081131 
	C82.413467,101.757042 82.265198,102.400162 82.067490,103.427597 
	C81.100510,104.575798 80.182968,105.339668 78.949173,106.075333 
	C78.421837,106.031120 78.210762,106.015099 77.999695,105.999084 
z"/>
<path fill="#1B313C" opacity="1.000000" stroke="none" 
	d="
M117.996750,334.145477 
	C118.051979,336.582672 117.042068,336.905762 114.897942,336.014160 
	C113.090538,335.262604 111.082283,334.993988 108.825439,334.984222 
	C113.441643,340.835693 111.875648,347.066101 111.501244,353.276978 
	C111.008324,361.454041 111.149628,369.667480 110.904396,377.861877 
	C110.682388,385.280640 110.307541,392.694794 110.000046,400.555481 
	C100.645775,401.000000 91.291542,401.000000 81.468658,400.531342 
	C81.000008,376.269043 80.972160,352.475281 81.048866,328.681885 
	C81.055550,326.607178 81.138512,324.079590 82.265350,322.565704 
	C84.047333,320.171600 83.307281,318.961639 81.698959,317.076874 
	C78.778992,313.655029 80.272491,308.263672 84.730118,306.335876 
	C85.996506,307.450867 87.026947,308.363464 87.974060,309.355621 
	C92.958092,314.576508 97.921066,319.817566 103.012436,325.369507 
	C105.064270,326.828217 106.995010,327.969055 108.946709,329.069122 
	C108.967674,329.028320 108.886070,329.070251 108.963760,329.330414 
	C109.359604,329.691345 109.677757,329.792145 110.281395,330.098572 
	C113.043503,331.584656 115.520126,332.865082 117.996750,334.145477 
z"/>
<path fill="#294D50" opacity="1.000000" stroke="none" 
	d="
M298.000000,401.000000 
	C287.979095,401.000000 277.958221,401.000000 267.468658,400.586548 
	C265.982513,397.762329 264.996979,395.337372 263.934631,392.946533 
	C263.363739,391.661682 262.011444,390.368713 262.132111,389.194519 
	C262.608887,384.554749 263.692291,379.978729 264.207428,375.340881 
	C264.426086,373.372498 264.357208,370.994385 263.434204,369.357941 
	C261.670044,366.230225 261.788269,363.703094 263.456635,360.563690 
	C264.387360,358.812408 264.232178,356.251404 263.937225,354.143311 
	C263.606293,351.778351 262.286072,349.558258 261.900452,347.192932 
	C261.356934,343.858673 261.276794,340.448914 261.317078,336.860229 
	C272.224823,334.412170 281.570160,329.620911 290.181274,323.118896 
	C295.706085,325.819031 298.236359,329.486847 298.134857,335.784729 
	C297.784607,357.518219 298.000000,379.260864 298.000000,401.000000 
z"/>
<path fill="#234248" opacity="1.000000" stroke="none" 
	d="
M229.000000,401.000000 
	C216.312439,401.000000 203.624878,401.000000 190.468658,400.531342 
	C189.999969,385.575073 190.040390,371.087219 189.958313,356.600098 
	C189.945312,354.308777 189.254395,352.028778 189.102737,349.728699 
	C188.933487,347.161713 189.021896,344.577789 189.357788,341.841705 
	C195.403091,341.447601 201.088654,341.210449 206.774475,340.979095 
	C214.850983,340.650513 222.927658,340.326172 231.336777,340.000183 
	C232.112656,340.002350 232.556015,340.004364 232.999695,340.254456 
	C233.000015,340.502563 233.001221,340.998779 232.820526,341.301025 
	C231.442795,343.248444 229.408890,344.799988 229.212250,346.557159 
	C228.706879,351.072968 229.004349,355.679932 229.002243,360.250488 
	C228.995987,373.833649 229.000000,387.416840 229.000000,401.000000 
z"/>
<path fill="#203D44" opacity="1.000000" stroke="none" 
	d="
M188.998169,342.001221 
	C189.021896,344.577789 188.933487,347.161713 189.102737,349.728699 
	C189.254395,352.028778 189.945312,354.308777 189.958313,356.600098 
	C190.040390,371.087219 189.999969,385.575073 190.000000,400.531342 
	C177.312439,401.000000 164.624878,401.000000 151.468658,401.000000 
	C151.000000,393.349060 150.858551,385.694122 151.072525,378.049194 
	C151.153412,375.159515 152.240616,372.311035 152.525665,369.410034 
	C152.764053,366.983948 153.303223,364.094971 152.294571,362.141357 
	C150.197678,358.080139 149.798340,354.755249 153.623230,351.928558 
	C153.394119,351.433502 153.354340,351.258179 153.250870,351.137451 
	C151.658234,349.279358 150.057281,347.428406 148.458252,345.575806 
	C151.188171,344.050140 153.907867,342.505676 156.652328,341.006592 
	C158.058517,340.238556 159.509033,339.551666 161.424545,338.329529 
	C167.952454,337.896637 173.995316,337.962341 180.075592,338.510895 
	C183.074722,339.996246 186.036438,340.998749 188.998169,342.001221 
z"/>
<path fill="#203D44" opacity="1.000000" stroke="none" 
	d="
M188.531342,1.000000 
	C189.333298,18.692293 189.701859,36.384052 189.969650,54.077335 
	C190.022263,57.553036 189.010178,61.166901 191.511566,64.467628 
	C179.046967,64.841331 167.021942,64.786354 154.978638,64.365318 
	C154.106323,59.359596 156.880661,53.494434 149.264145,50.712433 
	C156.021042,49.085911 155.004578,44.558987 155.002487,40.465969 
	C154.995789,27.310648 155.000000,14.155323 155.000000,1.000000 
	C166.020889,1.000000 177.041794,1.000000 188.531342,1.000000 
z"/>
<path fill="#27474C" opacity="1.000000" stroke="none" 
	d="
M229.468658,401.000000 
	C229.000000,387.416840 228.995987,373.833649 229.002243,360.250488 
	C229.004349,355.679932 228.706879,351.072968 229.212250,346.557159 
	C229.408890,344.799988 231.442795,343.248444 233.272705,341.301086 
	C236.458710,340.368591 240.253983,342.777252 241.517609,337.941010 
	C244.604370,337.904572 247.304306,337.972809 250.095947,338.371155 
	C252.001450,340.697815 253.265533,340.358612 254.337158,337.581116 
	C256.777191,337.263855 258.887848,337.167633 260.998505,337.071411 
	C261.276794,340.448914 261.356934,343.858673 261.900452,347.192932 
	C262.286072,349.558258 263.606293,351.778351 263.937225,354.143311 
	C264.232178,356.251404 264.387360,358.812408 263.456635,360.563690 
	C261.788269,363.703094 261.670044,366.230225 263.434204,369.357941 
	C264.357208,370.994385 264.426086,373.372498 264.207428,375.340881 
	C263.692291,379.978729 262.608887,384.554749 262.132111,389.194519 
	C262.011444,390.368713 263.363739,391.661682 263.934631,392.946533 
	C264.996979,395.337372 265.982513,397.762329 267.000000,400.586548 
	C254.645767,401.000000 242.291550,401.000000 229.468658,401.000000 
z"/>
<path fill="#2C5154" opacity="1.000000" stroke="none" 
	d="
M298.468262,401.000000 
	C298.000000,379.260864 297.784607,357.518219 298.134857,335.784729 
	C298.236359,329.486847 295.706085,325.819031 290.311523,322.814819 
	C292.565033,319.727203 295.022614,317.295563 297.242371,314.663422 
	C303.801147,306.886169 307.118561,297.511993 310.127075,288.002167 
	C314.807098,291.858215 317.533783,296.422241 317.145020,302.889740 
	C316.925354,306.544037 318.848541,310.330811 318.609711,313.979584 
	C318.125244,321.382385 319.002289,328.868530 318.292053,336.067352 
	C317.689178,342.178070 317.239227,347.719910 318.386139,353.904449 
	C319.646545,360.701202 317.904663,367.839142 318.600128,375.013855 
	C319.397003,383.234528 317.644775,391.702332 317.000000,400.531372 
	C310.978851,401.000000 304.957703,401.000000 298.468262,401.000000 
z"/>
<path fill="#2C5154" opacity="1.000000" stroke="none" 
	d="
M318.531616,0.999999 
	C318.333313,6.682178 317.453735,12.351244 317.102600,18.052855 
	C316.957977,20.401381 318.084869,22.803017 318.385284,25.211447 
	C318.668121,27.478796 319.341492,30.060839 318.590729,32.025963 
	C316.286102,38.058086 317.472321,43.687447 318.318695,49.830292 
	C319.400391,57.681034 318.059540,65.866318 317.753448,73.907066 
	C317.654388,76.508476 317.576050,79.112129 317.401886,81.708961 
	C316.885193,89.413666 316.644073,97.163658 315.493439,104.774734 
	C315.282501,106.170052 311.307129,106.996269 308.578918,108.010635 
	C308.088470,107.936096 308.211487,107.744667 308.435974,107.350266 
	C309.418549,104.536041 310.176605,102.116211 311.132233,99.065735 
	C308.346191,99.502266 306.757141,99.751244 304.987061,99.693184 
	C299.828125,92.703018 294.850311,86.019875 289.922546,79.055725 
	C292.848053,79.618561 295.723511,80.462418 299.000000,81.423981 
	C299.000000,54.994308 299.000000,27.997154 299.000000,1.000000 
	C305.354401,1.000000 311.708801,1.000000 318.531616,0.999999 
M297.459229,84.493233 
	C297.459229,84.493233 297.517975,84.466492 297.459229,84.493233 
z"/>
<path fill="#294E51" opacity="1.000000" stroke="none" 
	d="
M298.531372,1.000000 
	C299.000000,27.997154 299.000000,54.994308 299.000000,81.423981 
	C295.723511,80.462418 292.848053,79.618561 289.612366,78.905113 
	C284.140198,75.774544 279.028259,72.513557 273.916351,69.252579 
	C274.277557,66.299408 274.937439,63.347672 274.951630,60.392838 
	C275.045288,40.908035 275.000000,21.422567 275.000000,1.468657 
	C282.687592,1.000000 290.375153,1.000000 298.531372,1.000000 
z"/>
<path fill="#1E343E" opacity="1.000000" stroke="none" 
	d="
M102.148857,77.053391 
	C100.584740,76.698914 99.020622,76.344444 96.745880,75.828926 
	C98.056725,74.355606 98.720299,72.925354 99.740486,72.594414 
	C102.544746,71.684731 103.498337,70.250816 102.459328,67.404411 
	C102.228508,66.772064 102.551987,65.573021 103.056328,65.094734 
	C106.853081,61.494156 105.967621,56.865993 105.991348,52.443943 
	C106.025307,46.111279 106.154854,39.773651 105.965324,33.446480 
	C105.645332,22.764326 106.030777,12.176132 108.996826,1.410246 
	C115.021156,1.000000 121.042305,1.000000 127.531731,1.468657 
	C128.000000,11.424952 127.884598,20.914452 128.037827,30.399614 
	C128.152924,37.524258 128.631790,44.642590 128.912048,51.765175 
	C129.058990,55.499699 131.078232,56.614021 134.648056,57.147621 
	C139.154282,57.821201 143.514267,59.536385 144.540283,64.812668 
	C138.058456,65.324158 132.036667,65.752060 125.638802,66.143280 
	C121.845886,67.422134 118.429054,68.737663 114.653679,70.064072 
	C110.246384,72.401108 106.197617,74.727249 102.148857,77.053391 
z"/>
<path fill="#1D3841" opacity="1.000000" stroke="none" 
	d="
M145.000320,64.729088 
	C143.514267,59.536385 139.154282,57.821201 134.648056,57.147621 
	C131.078232,56.614021 129.058990,55.499699 128.912048,51.765175 
	C128.631790,44.642590 128.152924,37.524258 128.037827,30.399614 
	C127.884598,20.914452 128.000000,11.424952 128.000000,1.468657 
	C136.687561,1.000000 145.375137,1.000000 154.531342,1.000000 
	C155.000000,14.155323 154.995789,27.310648 155.002487,40.465969 
	C155.004578,44.558987 156.021042,49.085911 149.264145,50.712433 
	C156.880661,53.494434 154.106323,59.359596 154.530579,64.447151 
	C151.067322,64.839722 148.033813,64.784401 145.000320,64.729088 
z"/>
<path fill="#1A2E39" opacity="1.000000" stroke="none" 
	d="
M84.455734,306.170135 
	C80.272491,308.263672 78.778992,313.655029 81.698959,317.076874 
	C83.307281,318.961639 84.047333,320.171600 82.265350,322.565704 
	C81.138512,324.079590 81.055550,326.607178 81.048866,328.681885 
	C80.972160,352.475281 81.000008,376.269043 81.000000,400.531342 
	C78.629440,401.000000 76.258888,401.000000 73.444168,401.000000 
	C73.504906,361.952576 71.885185,322.887024 74.342110,283.519653 
	C75.316689,284.966156 76.722870,286.890381 76.423615,288.497009 
	C75.765663,292.029419 77.642815,292.047943 80.073570,292.365936 
	C81.577904,297.213043 83.016815,301.691589 84.455734,306.170135 
z"/>
<path fill="#FDFEFD" opacity="1.000000" stroke="none" 
	d="
M144.540283,64.812668 
	C148.033813,64.784401 151.067322,64.839722 154.548874,64.813202 
	C167.021942,64.786354 179.046967,64.841331 191.534317,64.815300 
	C192.444839,64.790428 192.893021,64.846573 194.094727,64.899002 
	C196.564438,64.841011 198.280594,64.786736 199.996765,64.732452 
	C210.687881,64.785110 221.378998,64.837769 232.532379,64.809845 
	C237.810867,64.793633 242.634735,65.060493 247.441605,64.878471 
	C256.322449,64.542191 264.858948,65.997940 273.532532,69.178864 
	C279.028259,72.513557 284.140198,75.774544 289.562317,79.186127 
	C294.850311,86.019875 299.828125,92.703018 304.980011,100.048813 
	C306.173218,103.055870 307.192352,105.400269 308.211487,107.744667 
	C308.211487,107.744667 308.088470,107.936096 308.129028,108.042435 
	C308.442993,109.176086 308.716370,110.203407 309.150757,112.006882 
	C310.372375,122.706673 311.432983,132.630310 312.541962,143.006866 
	C298.362579,143.006866 285.720093,143.006866 272.993561,143.006866 
	C272.824799,139.273087 272.682983,136.135529 272.633240,132.671600 
	C272.652649,131.903946 272.579926,131.462677 272.609131,130.684174 
	C272.482574,129.229202 272.254059,128.111450 272.071960,126.621048 
	C272.035736,125.503693 271.953125,124.758995 271.919586,123.690918 
	C271.628540,122.578728 271.288422,121.789932 270.966766,120.633530 
	C269.757233,118.352455 268.529175,116.438995 267.261658,114.530121 
	C267.222198,114.534714 267.191772,114.461273 267.496338,114.215042 
	C264.314209,108.065086 259.327087,104.324890 252.348404,104.017128 
	C247.242737,103.791969 242.114807,104.071121 236.534409,104.045059 
	C226.710236,104.018631 217.348480,104.072639 207.744751,104.057007 
	C207.341461,104.033745 207.180145,104.080132 206.559753,104.041008 
	C201.732819,104.011665 197.364944,104.067825 192.534668,104.043480 
	C179.047195,104.016808 166.022110,104.070641 152.534927,104.044403 
	C148.578445,103.956161 145.084061,103.941574 141.589691,103.940933 
	C126.600807,103.938179 116.995087,113.559067 116.954483,128.723999 
	C116.904579,147.360840 117.296074,166.007782 116.791969,184.631287 
	C116.466118,196.669693 123.945053,203.292313 132.825165,205.023987 
	C137.272583,205.891281 141.740967,206.694351 146.129807,207.803711 
	C149.106155,208.556030 151.960617,209.790573 155.200577,210.920258 
	C168.349548,214.366837 181.167557,217.702606 194.256073,221.302551 
	C198.184982,222.531876 201.847687,223.481064 205.500916,224.465469 
	C213.132278,226.521820 220.753235,228.617035 228.389801,230.653778 
	C231.325790,231.436844 231.444260,231.332901 231.704956,229.002197 
	C231.685104,228.978683 231.672409,228.918472 231.395447,229.076599 
	C231.304199,229.737244 231.489929,230.239792 231.822784,231.131989 
	C232.108383,233.136108 232.645477,234.837479 232.315674,236.349808 
	C230.958252,242.574249 229.337448,248.741257 227.539688,255.186981 
	C226.036179,260.147522 224.806488,264.850464 223.570496,269.577545 
	C221.892426,269.131989 220.469910,268.741608 219.040878,268.376801 
	C207.909637,265.535370 196.777161,262.698761 185.456116,259.596436 
	C184.853577,259.273499 184.439987,259.214783 183.700378,259.069885 
	C182.926437,258.962433 182.478546,258.941193 181.768127,258.649414 
	C175.423645,256.876984 169.341675,255.375061 163.012268,253.573700 
	C161.656677,252.997345 160.548035,252.722473 159.440491,252.443222 
	C149.626740,249.968826 139.813202,247.493668 129.756775,244.778656 
	C128.010132,244.122009 126.506317,243.705444 124.686325,243.152130 
	C123.913200,243.036240 123.456245,243.057083 122.681404,242.866180 
	C109.798042,239.973709 98.560326,234.651871 88.966080,225.613220 
	C88.282875,224.819656 87.678444,224.317093 86.919571,223.495331 
	C85.875465,221.381882 84.985802,219.587631 84.059998,217.432816 
	C81.727287,210.394470 79.430733,203.716690 77.430099,196.918823 
	C77.751671,196.188446 77.777306,195.578171 77.802933,194.967880 
	C77.841522,172.959656 77.880112,150.951416 77.949890,128.225342 
	C77.936760,127.334358 77.892433,127.161217 77.848114,126.988083 
	C77.807755,123.922562 77.767395,120.857040 77.872894,117.017334 
	C80.687447,113.140289 80.104744,109.637680 79.265427,106.103531 
	C80.182968,105.339668 81.100510,104.575798 82.358002,103.317825 
	C82.842636,102.231918 82.987305,101.640129 83.131973,101.048332 
	C85.688248,97.167618 87.959930,93.055717 90.875336,89.466736 
	C94.257790,85.302780 98.205360,81.597885 102.028244,77.373566 
	C106.197617,74.727249 110.246384,72.401108 114.707001,70.384277 
	C115.608627,71.277977 116.446739,72.422379 116.537781,72.365746 
	C119.740303,70.373726 122.872643,68.268883 126.014877,66.179955 
	C132.036667,65.752060 138.058456,65.324158 144.540283,64.812668 
z"/>
<path fill="#FCFDFD" opacity="1.000000" stroke="none" 
	d="
M84.730118,306.335876 
	C83.016815,301.691589 81.577904,297.213043 80.133018,291.943665 
	C79.334030,282.718018 78.541023,274.283203 77.748009,265.848389 
	C77.806335,264.742859 77.864662,263.637299 77.924561,261.817078 
	C78.946136,260.606537 79.966133,260.110718 81.357697,259.718597 
	C82.490845,259.751862 83.252426,259.681427 84.467880,259.705170 
	C88.944832,259.729828 92.967896,259.660339 97.447540,259.694458 
	C103.251030,259.742767 108.597939,259.687408 114.323021,259.730011 
	C115.439606,260.771240 116.759903,261.681244 116.815979,262.663483 
	C117.062195,266.976044 116.862961,271.311462 116.971420,275.634918 
	C117.268677,287.485016 126.472878,297.898010 138.066437,298.583710 
	C146.670135,299.092560 155.338486,298.508423 164.431396,298.543152 
	C173.590408,298.595978 182.296051,298.516815 191.366608,298.560791 
	C192.486725,298.597107 193.241943,298.510345 194.413849,298.544220 
	C196.554214,298.584015 198.277893,298.503113 200.453522,298.551117 
	C213.944412,298.603638 226.983337,298.527252 240.448944,298.566589 
	C242.875412,298.691010 244.875214,298.707336 246.875000,298.707275 
	C261.719452,298.706970 271.091095,291.324402 271.907471,276.404236 
	C273.025391,255.973328 272.778992,235.451797 272.589966,214.973969 
	C272.523193,207.740555 268.821594,201.592209 261.678558,199.121994 
	C254.090149,196.497742 246.145050,194.904922 238.089386,192.575073 
	C230.541992,190.337845 223.289383,188.271622 215.971420,186.470901 
	C209.350540,184.841721 202.658325,183.502380 195.617813,181.990204 
	C192.843948,181.250412 190.449829,180.555634 187.890686,179.533615 
	C184.149780,178.196671 180.573914,177.186966 176.661057,176.076294 
	C175.211090,175.696243 174.098083,175.417145 172.635040,175.019028 
	C170.856735,174.614517 169.428467,174.329025 167.908920,173.923553 
	C167.817627,173.803574 167.522232,173.864197 167.248764,173.567429 
	C163.360062,172.326752 159.744812,171.382843 155.874313,170.372299 
	C158.360352,160.384338 160.765106,150.723053 163.474213,140.837494 
	C163.966309,139.649292 164.217178,138.692734 164.330841,137.720139 
	C164.820969,133.526428 166.733322,132.535889 170.848206,133.925598 
	C176.684219,135.896591 182.747131,137.195679 189.057190,138.888580 
	C201.735580,142.269028 214.069885,145.542770 226.697662,148.916290 
	C240.660614,152.636368 254.330093,156.256683 268.330505,159.996063 
	C269.774719,160.362640 270.888031,160.610153 272.346191,160.991409 
	C274.794312,161.724533 276.897522,162.323929 279.310181,163.103333 
	C285.032532,166.655701 290.950073,169.434631 295.755829,173.521042 
	C306.547394,182.697296 310.809357,195.227676 311.858429,209.457535 
	C311.818268,230.943756 311.887512,251.972321 311.956787,273.000885 
	C311.306183,277.725677 310.655548,282.450470 310.065979,287.588715 
	C307.118561,297.511993 303.801147,306.886169 297.242371,314.663422 
	C295.022614,317.295563 292.565033,319.727203 290.085938,322.554504 
	C281.570160,329.620911 272.224823,334.412170 261.317078,336.860229 
	C258.887848,337.167633 256.777191,337.263855 253.936279,337.530762 
	C252.138763,337.814636 251.071487,337.927826 250.004227,338.041016 
	C247.304306,337.972809 244.604370,337.904572 241.115128,337.846527 
	C237.419968,338.039581 234.514114,338.222412 231.621826,338.441223 
	C231.635376,338.477234 231.588394,338.310760 231.190460,338.098083 
	C213.874420,337.932953 196.956299,337.980499 180.038193,338.028046 
	C173.995316,337.962341 167.952454,337.896637 161.454163,337.935852 
	C147.653885,337.337952 134.120071,339.046997 121.045135,334.914093 
	C120.271919,334.669678 119.526176,334.338379 118.382202,334.096497 
	C115.520126,332.865082 113.043503,331.584656 110.133957,329.913635 
	C109.480377,329.280304 109.208725,329.129364 108.886070,329.070251 
	C108.886070,329.070251 108.967674,329.028320 108.918808,328.713562 
	C107.702927,325.808014 106.724945,322.879517 102.891342,325.051636 
	C97.921066,319.817566 92.958092,314.576508 87.974060,309.355621 
	C87.026947,308.363464 85.996506,307.450867 84.730118,306.335876 
z"/>
<path fill="#2C4E52" opacity="1.000000" stroke="none" 
	d="
M311.967865,208.999878 
	C310.809357,195.227676 306.547394,182.697296 295.755829,173.521042 
	C290.950073,169.434631 285.032532,166.655701 279.224731,162.775345 
	C276.865601,160.631973 274.901306,158.996597 272.500916,156.998123 
	C272.277924,158.720764 272.139618,159.789215 272.001312,160.857681 
	C270.888031,160.610153 269.774719,160.362640 268.407501,159.684753 
	C268.437408,157.836288 268.721222,156.418213 269.090820,154.660950 
	C270.003143,152.909149 270.829620,151.496536 271.656128,150.083908 
	C270.101288,150.379242 268.543518,150.660248 266.992523,150.974609 
	C265.852173,151.205780 264.720642,151.480637 264.195129,151.598831 
	C266.344727,146.276703 268.358337,141.169769 270.488220,136.111816 
	C270.962524,134.985428 271.846039,134.031372 272.541138,132.997971 
	C272.682983,136.135529 272.824799,139.273087 272.993561,143.006866 
	C285.720093,143.006866 298.362579,143.006866 312.541962,143.006866 
	C311.432983,132.630310 310.372375,122.706673 309.265228,112.393196 
	C312.465210,112.761574 315.813721,113.236320 318.929596,114.357582 
	C322.058807,115.483643 321.032104,117.758354 319.355438,119.419724 
	C314.422882,124.307198 314.820221,130.429428 314.979004,136.577850 
	C315.022278,138.253754 315.106964,140.276443 314.279541,141.567657 
	C310.373749,147.662613 310.529999,149.245789 314.901978,154.999924 
	C315.701385,156.052063 314.642578,158.735291 314.032196,160.526062 
	C313.804047,161.195343 311.617706,161.560852 311.658966,161.904816 
	C312.588440,169.656158 308.480347,176.772430 309.485992,184.762543 
	C310.524231,193.011490 318.439758,199.333038 314.871643,208.699615 
	C313.482788,209.000183 312.725311,209.000031 311.967865,208.999878 
z"/>
<path fill="#295250" opacity="1.000000" stroke="none" 
	d="
M311.858429,209.457535 
	C312.725311,209.000031 313.482788,209.000183 314.618896,209.000153 
	C314.998383,228.567871 315.055817,248.136185 314.903198,267.702850 
	C314.889526,269.454346 313.514893,271.195221 312.364563,272.970947 
	C311.887512,251.972321 311.818268,230.943756 311.858429,209.457535 
z"/>
<path fill="#1B2F3A" opacity="1.000000" stroke="none" 
	d="
M96.990967,259.590851 
	C92.967896,259.660339 88.944832,259.729828 84.389465,259.422913 
	C82.900162,259.235931 81.943153,259.425415 80.986130,259.614899 
	C79.966133,260.110718 78.946136,260.606537 77.840782,261.408905 
	C74.219780,262.436218 73.903244,260.265503 74.018921,257.617584 
	C74.612816,244.023605 75.450356,230.432190 75.633232,216.832214 
	C75.707146,211.334579 74.194344,205.829437 73.720253,200.300568 
	C73.606522,198.974167 74.756073,197.539444 75.809204,196.292847 
	C76.573914,196.633728 76.854042,196.836319 77.134171,197.038910 
	C79.430733,203.716690 81.727287,210.394470 83.892082,217.754669 
	C82.875595,220.292511 81.990868,222.147919 81.106148,224.003311 
	C81.375633,224.392944 81.645119,224.782562 81.914612,225.172195 
	C83.634407,224.719635 85.354210,224.267090 87.074013,223.814545 
	C87.678444,224.317093 88.282875,224.819656 88.745117,225.886047 
	C83.704803,230.458420 81.277336,239.054443 83.550087,240.870270 
	C86.394981,239.860626 88.964828,237.958618 90.880486,238.476486 
	C94.770477,239.528122 91.879341,242.888596 92.071396,245.268631 
	C92.449821,249.958191 89.717598,255.809677 96.701363,258.178589 
	C96.931145,258.256500 96.900314,259.102753 96.990967,259.590851 
M76.460312,258.492645 
	C76.460312,258.492645 76.516418,258.467621 76.460312,258.492645 
z"/>
<path fill="#21313C" opacity="1.000000" stroke="none" 
	d="
M77.390457,266.053192 
	C78.541023,274.283203 79.334030,282.718018 80.067596,291.575104 
	C77.642815,292.047943 75.765663,292.029419 76.423615,288.497009 
	C76.722870,286.890381 75.316689,284.966156 74.342514,283.092682 
	C74.245987,282.193878 74.491035,281.388397 74.868019,279.917053 
	C75.000374,278.501221 75.000801,277.751221 75.001221,277.001221 
	C75.001106,276.556519 75.000992,276.111816 75.225784,275.156860 
	C75.634079,273.431061 75.817490,272.215546 76.000885,271.000000 
	C76.344894,269.419342 76.688896,267.838654 77.390457,266.053192 
z"/>
<path fill="#1C2F3C" opacity="1.000000" stroke="none" 
	d="
M78.949165,106.075333 
	C80.104744,109.637680 80.687447,113.140289 77.926971,116.623947 
	C76.432343,114.775467 74.583313,112.700615 73.744217,110.276215 
	C72.784027,107.501945 74.047096,105.528496 77.711365,105.893509 
	C78.210762,106.015099 78.421837,106.031120 78.949165,106.075333 
z"/>
<path fill="#1B2F3A" opacity="1.000000" stroke="none" 
	d="
M75.676514,271.080414 
	C75.817490,272.215546 75.634079,273.431061 75.225342,274.823334 
	C75.117378,273.720306 75.234764,272.440582 75.676514,271.080414 
z"/>
<path fill="#1B2F3A" opacity="1.000000" stroke="none" 
	d="
M74.687698,277.071503 
	C75.000801,277.751221 75.000374,278.501221 74.998932,279.626282 
	C74.790001,279.048187 74.582085,278.094971 74.687698,277.071503 
z"/>
<path fill="#384449" opacity="1.000000" stroke="none" 
	d="
M77.430099,196.918823 
	C76.854042,196.836319 76.573914,196.633728 76.145248,196.215576 
	C76.419914,195.683960 76.843102,195.367905 77.534615,195.009872 
	C77.777306,195.578171 77.751671,196.188446 77.430099,196.918823 
z"/>
<path fill="#384449" opacity="1.000000" stroke="none" 
	d="
M77.720497,127.088760 
	C77.892433,127.161217 77.936760,127.334358 77.892838,127.760681 
	C77.491783,127.796516 77.421211,127.521706 77.720497,127.088760 
z"/>
<path fill="#203D44" opacity="1.000000" stroke="none" 
	d="
M199.963074,64.367516 
	C198.280594,64.786736 196.564438,64.841011 194.425598,64.814690 
	C195.477951,60.435646 197.538361,60.879803 199.963074,64.367516 
z"/>
<path fill="#182C37" opacity="1.000000" stroke="none" 
	d="
M82.846855,101.081131 
	C82.987305,101.640129 82.842636,102.231918 82.407455,102.933495 
	C82.265198,102.400162 82.413467,101.757042 82.846855,101.081131 
z"/>
<path fill="#EBF1F1" opacity="1.000000" stroke="none" 
	d="
M103.012436,325.369507 
	C106.724945,322.879517 107.702927,325.808014 108.897842,328.754395 
	C106.995010,327.969055 105.064270,326.828217 103.012436,325.369507 
z"/>
<path fill="#EBF1F1" opacity="1.000000" stroke="none" 
	d="
M108.963760,329.330414 
	C109.208725,329.129364 109.480377,329.280304 109.848480,329.707977 
	C109.677757,329.792145 109.359604,329.691345 108.963760,329.330414 
z"/>
<path fill="#2A4144" opacity="1.000000" stroke="none" 
	d="
M180.075592,338.510895 
	C196.956299,337.980499 213.874420,337.932953 231.020508,338.513000 
	C231.167099,339.427094 231.085678,339.713531 231.004272,340.000000 
	C222.927658,340.326172 214.850983,340.650513 206.774475,340.979095 
	C201.088654,341.210449 195.403091,341.447601 189.357788,341.841705 
	C186.036438,340.998749 183.074722,339.996246 180.075592,338.510895 
z"/>
<path fill="#203D44" opacity="1.000000" stroke="none" 
	d="
M231.608276,338.405243 
	C234.514114,338.222412 237.419968,338.039581 240.728271,337.951202 
	C240.253983,342.777252 236.458710,340.368591 233.453400,340.998840 
	C233.001221,340.998779 233.000015,340.502563 233.000000,340.251282 
	C233.000000,340.000000 233.002823,340.001740 233.136444,339.901367 
	C233.453506,339.467255 233.366440,339.200104 232.660156,338.847534 
	C232.077042,338.598846 231.842667,338.502045 231.608276,338.405243 
z"/>
<path fill="#27474C" opacity="1.000000" stroke="none" 
	d="
M231.336777,340.000183 
	C231.085678,339.713531 231.167099,339.427094 231.418457,338.725708 
	C231.588394,338.310760 231.635376,338.477234 231.621826,338.441223 
	C231.842667,338.502045 232.077042,338.598846 232.657684,339.098083 
	C233.003571,339.667603 233.003204,339.834656 233.002823,340.001740 
	C233.002823,340.001740 233.000000,340.000000 232.999695,340.003174 
	C232.556015,340.004364 232.112656,340.002350 231.336777,340.000183 
z"/>
<path fill="#2A4144" opacity="1.000000" stroke="none" 
	d="
M250.095947,338.371155 
	C251.071487,337.927826 252.138763,337.814636 253.606903,337.751831 
	C253.265533,340.358612 252.001450,340.697815 250.095947,338.371155 
z"/>
<path fill="#2D5557" opacity="1.000000" stroke="none" 
	d="
M308.435974,107.350266 
	C307.192352,105.400269 306.173218,103.055870 305.161072,100.355843 
	C306.757141,99.751244 308.346191,99.502266 311.132233,99.065735 
	C310.176605,102.116211 309.418549,104.536041 308.435974,107.350266 
z"/>
<path fill="#294E51" opacity="1.000000" stroke="none" 
	d="
M297.488586,84.479858 
	C297.517975,84.466492 297.459229,84.493233 297.488586,84.479858 
z"/>
<path fill="#EDF2F1" opacity="1.000000" stroke="none" 
	d="
M125.638802,66.143280 
	C122.872643,68.268883 119.740303,70.373726 116.537781,72.365746 
	C116.446739,72.422379 115.608627,71.277977 115.065536,70.373390 
	C118.429054,68.737663 121.845886,67.422134 125.638802,66.143280 
z"/>
<path fill="#2B4A4F" opacity="1.000000" stroke="none" 
	d="
M238.355713,192.861710 
	C246.145050,194.904922 254.090149,196.497742 261.678558,199.121994 
	C268.821594,201.592209 272.523193,207.740555 272.589966,214.973969 
	C272.778992,235.451797 273.025391,255.973328 271.907471,276.404236 
	C271.091095,291.324402 261.719452,298.706970 246.875000,298.707275 
	C244.875214,298.707336 242.875412,298.691010 240.382385,298.188599 
	C238.882233,296.947571 237.978271,295.834045 236.850403,295.517029 
	C232.237244,294.220123 230.460358,292.303436 234.153946,287.941528 
	C235.051788,286.881226 234.805893,284.812042 234.988617,283.195770 
	C235.283936,280.583435 235.132858,277.862488 235.812927,275.362213 
	C238.301041,266.214630 236.053955,260.202545 227.813507,254.929398 
	C229.337448,248.741257 230.958252,242.574249 232.315674,236.349808 
	C232.645477,234.837479 232.108383,233.136108 232.273010,230.862915 
	C238.748459,221.195450 235.714386,211.140533 235.430832,201.528915 
	C235.322693,197.863647 235.540848,195.151123 238.355713,192.861710 
z"/>
<path fill="#1D3740" opacity="1.000000" stroke="none" 
	d="
M154.869598,210.809464 
	C151.960617,209.790573 149.106155,208.556030 146.129807,207.803711 
	C141.740967,206.694351 137.272583,205.891281 132.825165,205.023987 
	C123.945053,203.292313 116.466118,196.669693 116.791969,184.631287 
	C117.296074,166.007782 116.904579,147.360840 116.954483,128.723999 
	C116.995087,113.559067 126.600807,103.938179 141.589691,103.940933 
	C145.084061,103.941574 148.578445,103.956161 152.432312,104.373062 
	C151.549698,105.669548 150.307602,106.557304 148.199417,108.064079 
	C151.205063,109.378151 153.420090,110.346573 156.640732,111.754646 
	C154.642456,113.227753 153.038849,113.999557 152.063049,115.258125 
	C151.271927,116.278542 150.484421,118.582901 150.983231,119.118675 
	C154.813202,123.232330 154.644562,126.999565 150.833923,130.930237 
	C150.321594,131.458710 150.108353,132.446106 150.067932,133.236908 
	C149.678696,140.851944 148.925125,148.486298 149.204895,156.080887 
	C149.335754,159.633072 148.878815,164.430664 154.000916,166.411377 
	C154.338806,169.555237 154.676636,172.275894 154.821472,175.252609 
	C154.423355,177.053650 154.013016,178.603043 154.046356,180.142853 
	C154.267715,190.366211 154.584106,200.587494 154.869598,210.809464 
z"/>
<path fill="#1F3841" opacity="1.000000" stroke="none" 
	d="
M163.978027,298.411163 
	C155.338486,298.508423 146.670135,299.092560 138.066437,298.583710 
	C126.472878,297.898010 117.268677,287.485016 116.971420,275.634918 
	C116.862961,271.311462 117.062195,266.976044 116.815979,262.663483 
	C116.759903,261.681244 115.439606,260.771240 114.335823,259.282501 
	C114.863884,257.025452 115.331345,254.691376 116.737541,253.729141 
	C119.867317,251.587463 119.459541,249.724258 117.097374,247.232681 
	C118.431824,247.073166 119.607437,246.932648 121.244400,246.736984 
	C120.208618,246.121628 119.691444,245.814362 119.550041,245.730362 
	C120.671669,244.867844 121.835480,243.972870 122.999298,243.077911 
	C123.456245,243.057083 123.913200,243.036240 124.695709,243.525055 
	C125.914993,248.236603 127.698578,247.936539 129.999588,245.018738 
	C139.813202,247.493668 149.626740,249.968826 159.440491,252.443222 
	C160.548035,252.722473 161.656677,252.997345 162.663513,253.734756 
	C160.537247,255.782822 156.836075,255.357376 156.959976,259.504425 
	C157.252655,269.300446 157.644638,279.117004 157.282715,288.898834 
	C157.110626,293.549652 157.791504,296.252777 162.929855,296.393829 
	C163.297424,296.403870 163.629471,297.708466 163.978027,298.411163 
M152.842087,254.507828 
	C152.903046,254.827347 152.964005,255.146866 153.024963,255.466385 
	C153.097366,255.149323 153.169769,254.832245 152.842087,254.507828 
M148.507660,255.460083 
	C148.507660,255.460083 148.533218,255.516586 148.507660,255.460083 
z"/>
<path fill="#254248" opacity="1.000000" stroke="none" 
	d="
M238.089386,192.575073 
	C235.540848,195.151123 235.322693,197.863647 235.430832,201.528915 
	C235.714386,211.140533 238.748459,221.195450 232.125885,230.473236 
	C231.489929,230.239792 231.304199,229.737244 231.236084,229.203003 
	C231.477402,229.122757 231.601105,229.074219 231.724823,229.025696 
	C231.444260,231.332901 231.325790,231.436844 228.389801,230.653778 
	C220.753235,228.617035 213.132278,226.521820 205.500916,224.465469 
	C201.847687,223.481064 198.184982,222.531876 194.179825,220.951813 
	C189.183609,217.888702 189.011734,214.330521 189.729279,209.387054 
	C190.648682,203.052750 190.148346,196.444504 189.652664,190.000977 
	C189.400299,186.720657 188.128174,183.878250 193.352371,184.490967 
	C194.127441,184.581863 195.110657,182.898026 195.997574,182.035248 
	C202.658325,183.502380 209.350540,184.841721 215.971420,186.470901 
	C223.289383,188.271622 230.541992,190.337845 238.089386,192.575073 
M229.810211,227.334076 
	C230.425766,227.227615 231.041336,227.121155 231.656906,227.014709 
	C231.576752,226.590652 231.496597,226.166580 231.416443,225.742523 
	C230.876846,226.089935 230.337250,226.437347 229.810211,227.334076 
z"/>
<path fill="#27484C" opacity="1.000000" stroke="none" 
	d="
M272.633240,132.671600 
	C271.846039,134.031372 270.962524,134.985428 270.488220,136.111816 
	C268.358337,141.169769 266.344727,146.276703 264.195129,151.598831 
	C264.720642,151.480637 265.852173,151.205780 266.992523,150.974609 
	C268.543518,150.660248 270.101288,150.379242 271.656128,150.083908 
	C270.829620,151.496536 270.003143,152.909149 268.755188,154.660950 
	C267.886322,154.999374 267.438934,154.998596 266.790649,154.777176 
	C265.726196,154.705551 264.862610,154.854553 263.755737,155.235107 
	C262.340271,154.976532 261.168091,154.486435 260.184052,153.794220 
	C260.148254,153.142715 259.924255,152.693329 259.700287,152.243927 
	C259.130249,152.829483 258.560242,153.415039 257.549530,154.000488 
	C251.798904,152.990692 244.831161,153.678055 241.609497,150.530792 
	C237.802628,146.811829 234.023514,146.994019 230.002014,145.531921 
	C230.000671,134.664703 230.111511,124.264427 229.947586,113.868484 
	C229.877838,109.444954 229.745407,105.425972 235.893616,105.609283 
	C236.246277,105.619789 236.628387,104.642860 236.996811,104.125488 
	C242.114807,104.071121 247.242737,103.791969 252.348404,104.017128 
	C259.327087,104.324890 264.314209,108.065086 267.209839,114.383537 
	C266.389069,115.834557 266.159332,116.870857 265.929626,117.907150 
	C266.386780,117.965477 266.843964,118.023796 267.301147,118.082115 
	C267.301147,116.896591 267.301147,115.711060 267.301147,114.525536 
	C268.529175,116.438995 269.757233,118.352455 270.654175,120.717880 
	C269.992401,122.099365 269.661682,123.028893 269.330963,123.958420 
	C270.177490,123.977043 271.023987,123.995674 271.870514,124.014297 
	C271.953125,124.758995 272.035736,125.503693 271.694946,126.621651 
	C270.083862,127.156212 268.896118,127.317505 267.708405,127.478798 
	C267.596222,127.913681 267.484039,128.348572 267.371857,128.783463 
	C269.083649,129.529434 270.795410,130.275421 272.507202,131.021393 
	C272.579926,131.462677 272.652649,131.903946 272.633240,132.671600 
M265.115723,124.924347 
	C266.994537,123.757278 266.994537,123.757278 263.939056,119.671974 
	C264.349518,122.029449 264.553925,123.203400 265.115723,124.924347 
z"/>
<path fill="#244248" opacity="1.000000" stroke="none" 
	d="
M227.539703,255.186981 
	C236.053955,260.202545 238.301041,266.214630 235.812927,275.362213 
	C235.132858,277.862488 235.283936,280.583435 234.988617,283.195770 
	C234.805893,284.812042 235.051788,286.881226 234.153946,287.941528 
	C230.460358,292.303436 232.237244,294.220123 236.850403,295.517029 
	C237.978271,295.834045 238.882233,296.947571 239.955688,298.072876 
	C226.983337,298.527252 213.944412,298.603638 200.407379,298.210236 
	C197.629715,295.295044 195.544052,294.527802 193.997147,298.423553 
	C193.241943,298.510345 192.486725,298.597107 191.332397,298.176514 
	C190.933273,286.624451 190.933273,275.579773 190.933273,264.535065 
	C190.341354,264.798431 189.749420,265.061768 189.157501,265.325134 
	C186.781891,263.190063 184.406265,261.055023 182.030655,258.919952 
	C182.478546,258.941193 182.926437,258.962433 183.935928,259.254486 
	C184.880035,259.637054 185.262558,259.748871 185.645065,259.860687 
	C196.777161,262.698761 207.909637,265.535370 219.040878,268.376801 
	C220.469910,268.741608 221.892426,269.131989 223.570496,269.577545 
	C224.806488,264.850464 226.036179,260.147522 227.539703,255.186981 
z"/>
<path fill="#244248" opacity="1.000000" stroke="none" 
	d="
M236.534409,104.045059 
	C236.628387,104.642860 236.246277,105.619789 235.893616,105.609283 
	C229.745407,105.425972 229.877838,109.444954 229.947586,113.868484 
	C230.111511,124.264427 230.000671,134.664703 229.668213,145.532394 
	C228.890457,146.003357 228.445465,146.005157 227.798050,146.129333 
	C227.341721,146.449722 227.148132,146.695312 226.806198,147.250702 
	C226.533066,147.947464 226.468628,148.381989 226.404190,148.816528 
	C214.069885,145.542770 201.735580,142.269028 189.123413,138.406738 
	C189.231857,131.401047 189.433395,124.964851 190.092499,118.575851 
	C190.368408,115.901276 192.981918,112.671700 192.111176,110.855118 
	C190.681076,107.871574 192.015930,106.249176 192.997086,104.123985 
	C197.364944,104.067825 201.732819,104.011665 206.661255,104.157440 
	C207.221817,104.359375 207.643890,104.419388 207.643890,104.419388 
	C207.643890,104.419388 207.986710,104.126656 207.986710,104.126656 
	C217.348480,104.072639 226.710236,104.018631 236.534409,104.045059 
z"/>
<path fill="#213D44" opacity="1.000000" stroke="none" 
	d="
M192.534668,104.043480 
	C192.015930,106.249176 190.681076,107.871574 192.111176,110.855118 
	C192.981918,112.671700 190.368408,115.901276 190.092499,118.575851 
	C189.433395,124.964851 189.231857,131.401047 188.779327,138.300049 
	C182.747131,137.195679 176.684219,135.896591 170.848206,133.925598 
	C166.733322,132.535889 164.820969,133.526428 164.330841,137.720139 
	C164.217178,138.692734 163.966309,139.649292 163.124466,140.903900 
	C162.028214,141.640594 161.455948,142.014648 161.163528,142.543457 
	C157.123383,149.849487 153.721191,157.359360 154.000854,165.988159 
	C148.878815,164.430664 149.335754,159.633072 149.204895,156.080887 
	C148.925125,148.486298 149.678696,140.851944 150.067932,133.236908 
	C150.108353,132.446106 150.321594,131.458710 150.833923,130.930237 
	C154.644562,126.999565 154.813202,123.232330 150.983231,119.118675 
	C150.484421,118.582901 151.271927,116.278542 152.063049,115.258125 
	C153.038849,113.999557 154.642456,113.227753 156.640732,111.754646 
	C153.420090,110.346573 151.205063,109.378151 148.199417,108.064079 
	C150.307602,106.557304 151.549698,105.669548 152.894424,104.453133 
	C166.022110,104.070641 179.047195,104.016808 192.534668,104.043480 
z"/>
<path fill="#213D44" opacity="1.000000" stroke="none" 
	d="
M195.617813,181.990204 
	C195.110657,182.898026 194.127441,184.581863 193.352371,184.490967 
	C188.128174,183.878250 189.400299,186.720657 189.652664,190.000977 
	C190.148346,196.444504 190.648682,203.052750 189.729279,209.387054 
	C189.011734,214.330521 189.183609,217.888702 193.909302,220.687637 
	C181.167557,217.702606 168.349548,214.366837 155.200562,210.920258 
	C154.584106,200.587494 154.267715,190.366211 154.046356,180.142853 
	C154.013016,178.603043 154.423355,177.053650 155.021729,175.127045 
	C155.665558,174.544327 155.861099,174.299301 156.261124,174.140839 
	C158.319824,175.755676 159.144714,175.325027 159.417267,173.073761 
	C162.391388,173.382751 164.956818,173.623474 167.522232,173.864197 
	C167.522232,173.864197 167.817627,173.803574 168.000275,174.254242 
	C169.783661,174.849274 171.384369,174.993668 172.985092,175.138046 
	C174.098083,175.417145 175.211090,175.696243 176.749969,176.395599 
	C178.349548,177.904388 180.479568,178.943527 180.538757,180.089630 
	C180.875595,186.610168 183.305450,183.252060 185.586029,181.386780 
	C186.328552,180.779480 187.228027,180.364044 188.055725,179.860855 
	C190.449829,180.555634 192.843948,181.250412 195.617813,181.990204 
z"/>
<path fill="#213D44" opacity="1.000000" stroke="none" 
	d="
M181.768127,258.649414 
	C184.406265,261.055023 186.781891,263.190063 189.157501,265.325134 
	C189.749420,265.061768 190.341354,264.798431 190.933273,264.535065 
	C190.933273,275.579773 190.933273,286.624451 190.967468,298.053406 
	C182.296051,298.516815 173.590408,298.595978 164.431396,298.543152 
	C163.629471,297.708466 163.297424,296.403870 162.929855,296.393829 
	C157.791504,296.252777 157.110626,293.549652 157.282715,288.898834 
	C157.644638,279.117004 157.252655,269.300446 156.959976,259.504425 
	C156.836075,255.357376 160.537247,255.782822 162.910980,254.034210 
	C169.341675,255.375061 175.423645,256.876984 181.768127,258.649414 
z"/>
<path fill="#1C313C" opacity="1.000000" stroke="none" 
	d="
M122.681404,242.866180 
	C121.835480,243.972870 120.671669,244.867844 119.550041,245.730362 
	C119.691444,245.814362 120.208618,246.121628 121.244400,246.736984 
	C119.607437,246.932648 118.431824,247.073166 117.097374,247.232681 
	C119.459541,249.724258 119.867317,251.587463 116.737541,253.729141 
	C115.331345,254.691376 114.863884,257.025452 113.957649,259.184540 
	C108.597939,259.687408 103.251030,259.742767 97.447540,259.694458 
	C96.900314,259.102753 96.931145,258.256500 96.701363,258.178589 
	C89.717598,255.809677 92.449821,249.958191 92.071396,245.268631 
	C91.879341,242.888596 94.770477,239.528122 90.880486,238.476486 
	C88.964828,237.958618 86.394981,239.860626 83.550087,240.870270 
	C81.277336,239.054443 83.704803,230.458420 88.823883,226.177078 
	C98.560326,234.651871 109.798042,239.973709 122.681404,242.866180 
z"/>
<path fill="#1C313C" opacity="1.000000" stroke="none" 
	d="
M86.919571,223.495331 
	C85.354210,224.267090 83.634407,224.719635 81.914612,225.172195 
	C81.645119,224.782562 81.375633,224.392944 81.106148,224.003311 
	C81.990868,222.147919 82.875595,220.292511 83.928223,218.115234 
	C84.985802,219.587631 85.875465,221.381882 86.919571,223.495331 
z"/>
<path fill="#2C4E52" opacity="1.000000" stroke="none" 
	d="
M272.609131,130.684174 
	C270.795410,130.275421 269.083649,129.529434 267.371857,128.783463 
	C267.484039,128.348572 267.596222,127.913681 267.708405,127.478798 
	C268.896118,127.317505 270.083862,127.156212 271.648560,126.994308 
	C272.254059,128.111450 272.482574,129.229202 272.609131,130.684174 
z"/>
<path fill="#1C313C" opacity="1.000000" stroke="none" 
	d="
M129.756775,244.778656 
	C127.698578,247.936539 125.914993,248.236603 125.011887,243.661804 
	C126.506317,243.705444 128.010132,244.122009 129.756775,244.778656 
M127.492966,245.542343 
	C127.492966,245.542343 127.465790,245.483795 127.492966,245.542343 
z"/>
<path fill="#2C4E52" opacity="1.000000" stroke="none" 
	d="
M271.919586,123.690910 
	C271.023987,123.995674 270.177490,123.977043 269.330963,123.958420 
	C269.661682,123.028893 269.992401,122.099365 270.635681,121.085487 
	C271.288422,121.789932 271.628540,122.578728 271.919586,123.690910 
z"/>
<path fill="#2B4A4F" opacity="1.000000" stroke="none" 
	d="
M231.704956,229.002182 
	C231.601105,229.074219 231.477402,229.122757 231.513062,229.044876 
	C231.672409,228.918472 231.685104,228.978683 231.704956,229.002182 
z"/>
<path fill="#213D44" opacity="1.000000" stroke="none" 
	d="
M207.744751,104.057007 
	C207.986710,104.126656 207.643890,104.419388 207.643890,104.419388 
	C207.643890,104.419388 207.221817,104.359375 207.120316,104.242943 
	C207.180145,104.080132 207.341461,104.033745 207.744751,104.057007 
z"/>
<path fill="#213D44" opacity="1.000000" stroke="none" 
	d="
M185.456116,259.596436 
	C185.262558,259.748871 184.880035,259.637054 184.261963,259.340668 
	C184.439987,259.214783 184.853577,259.273499 185.456116,259.596436 
z"/>
<path fill="#2B494B" opacity="1.000000" stroke="none" 
	d="
M226.697662,148.916290 
	C226.468628,148.381989 226.533066,147.947464 227.006409,147.126404 
	C227.665146,146.539307 227.860199,146.294998 228.000473,146.006943 
	C228.445465,146.005157 228.890457,146.003357 229.669250,146.001099 
	C234.023514,146.994019 237.802628,146.811829 241.609497,150.530792 
	C244.831161,153.678055 251.798904,152.990692 257.883972,153.999786 
	C259.104706,153.998260 259.550293,153.997299 259.995880,153.996338 
	C261.168091,154.486435 262.340271,154.976532 264.129944,155.234253 
	C265.495422,155.000519 266.243469,154.999176 266.991516,154.997833 
	C267.438934,154.998596 267.886322,154.999374 268.669373,155.000153 
	C268.721222,156.418213 268.437408,157.836288 268.076569,159.565689 
	C254.330093,156.256683 240.660614,152.636368 226.697662,148.916290 
z"/>
<path fill="#24393F" opacity="1.000000" stroke="none" 
	d="
M167.248764,173.567429 
	C164.956818,173.623474 162.391388,173.382751 159.083771,173.079895 
	C157.561600,173.348618 156.781616,173.679474 156.001633,174.010345 
	C155.861099,174.299301 155.665558,174.544327 155.214722,174.870972 
	C154.676636,172.275894 154.338806,169.555237 154.000916,166.411377 
	C153.721191,157.359360 157.123383,149.849487 161.163528,142.543457 
	C161.455948,142.014648 162.028214,141.640594 162.820099,141.128174 
	C160.765106,150.723053 158.360352,160.384338 155.874313,170.372299 
	C159.744812,171.382843 163.360062,172.326752 167.248764,173.567429 
z"/>
<path fill="#24393F" opacity="1.000000" stroke="none" 
	d="
M187.890686,179.533615 
	C187.228027,180.364044 186.328552,180.779480 185.586029,181.386780 
	C183.305450,183.252060 180.875595,186.610168 180.538757,180.089630 
	C180.479568,178.943527 178.349548,177.904388 177.086945,176.496552 
	C180.573914,177.186966 184.149780,178.196671 187.890686,179.533615 
z"/>
<path fill="#2B494B" opacity="1.000000" stroke="none" 
	d="
M272.346191,160.991409 
	C272.139618,159.789215 272.277924,158.720764 272.500916,156.998123 
	C274.901306,158.996597 276.865601,160.631973 278.915283,162.595337 
	C276.897522,162.323929 274.794312,161.724533 272.346191,160.991409 
z"/>
<path fill="#213D44" opacity="1.000000" stroke="none" 
	d="
M194.413849,298.544220 
	C195.544052,294.527802 197.629715,295.295044 199.955414,298.081360 
	C198.277893,298.503113 196.554214,298.584015 194.413849,298.544220 
z"/>
<path fill="#24393F" opacity="1.000000" stroke="none" 
	d="
M172.635040,175.019028 
	C171.384369,174.993668 169.783661,174.849274 168.091583,174.374222 
	C169.428467,174.329025 170.856735,174.614517 172.635040,175.019028 
z"/>
<path fill="#1F3841" opacity="1.000000" stroke="none" 
	d="
M81.357704,259.718597 
	C81.943153,259.425415 82.900162,259.235931 83.935593,259.328735 
	C83.252426,259.681427 82.490845,259.751862 81.357704,259.718597 
z"/>
<path fill="#1C313C" opacity="1.000000" stroke="none" 
	d="
M76.488365,258.480133 
	C76.516418,258.467621 76.460312,258.492645 76.488365,258.480133 
z"/>
<path fill="#2A4144" opacity="1.000000" stroke="none" 
	d="
M233.136444,339.901367 
	C233.003204,339.834656 233.003571,339.667603 233.006409,339.250000 
	C233.366440,339.200104 233.453506,339.467255 233.136444,339.901367 
z"/>
<path fill="#213D44" opacity="1.000000" stroke="none" 
	d="
M153.042130,254.511505 
	C153.169769,254.832245 153.097366,255.149323 153.024963,255.466385 
	C152.964005,255.146866 152.903046,254.827347 153.042130,254.511505 
z"/>
<path fill="#213D44" opacity="1.000000" stroke="none" 
	d="
M148.520447,255.488342 
	C148.533218,255.516586 148.507660,255.460083 148.520447,255.488342 
z"/>
<path fill="#2B4A4F" opacity="1.000000" stroke="none" 
	d="
M229.803925,227.059418 
	C230.337250,226.437347 230.876846,226.089935 231.416443,225.742523 
	C231.496597,226.166580 231.576752,226.590652 231.656906,227.014709 
	C231.041336,227.121155 230.425766,227.227615 229.803925,227.059418 
z"/>
<path fill="#2C4E52" opacity="1.000000" stroke="none" 
	d="
M264.937012,124.650848 
	C264.553925,123.203400 264.349518,122.029449 263.939056,119.671974 
	C266.994537,123.757278 266.994537,123.757278 264.937012,124.650848 
z"/>
<path fill="#2C4E52" opacity="1.000000" stroke="none" 
	d="
M267.261658,114.530121 
	C267.301147,115.711060 267.301147,116.896591 267.301147,118.082115 
	C266.843964,118.023796 266.386780,117.965477 265.929626,117.907150 
	C266.159332,116.870857 266.389069,115.834557 266.905273,114.629761 
	C267.191772,114.461273 267.222198,114.534714 267.261658,114.530121 
z"/>
<path fill="#2C4E52" opacity="1.000000" stroke="none" 
	d="
M260.184052,153.794220 
	C259.550293,153.997299 259.104706,153.998260 258.324677,153.999908 
	C258.560242,153.415039 259.130249,152.829483 259.700287,152.243927 
	C259.924255,152.693329 260.148254,153.142715 260.184052,153.794220 
z"/>
<path fill="#2C4E52" opacity="1.000000" stroke="none" 
	d="
M266.790649,154.777191 
	C266.243469,154.999176 265.495422,155.000519 264.373169,155.002716 
	C264.862610,154.854553 265.726196,154.705551 266.790649,154.777191 
z"/>
<path fill="#27484C" opacity="1.000000" stroke="none" 
	d="
M227.798050,146.129333 
	C227.860199,146.294998 227.665146,146.539307 227.215103,146.864166 
	C227.148132,146.695312 227.341721,146.449722 227.798050,146.129333 
z"/>
<path fill="#1D3740" opacity="1.000000" stroke="none" 
	d="
M156.261124,174.140839 
	C156.781616,173.679474 157.561600,173.348618 158.675064,173.011627 
	C159.144714,175.325027 158.319824,175.755676 156.261124,174.140839 
z"/>
<path fill="#1F3841" opacity="1.000000" stroke="none" 
	d="
M127.479378,245.513062 
	C127.465790,245.483795 127.492966,245.542343 127.479378,245.513062 
z"/>
</svg>