<svg version="1.1" id="Layer_1" xmlns="http://www.w3.org/2000/svg" xmlns:xlink="http://www.w3.org/1999/xlink" x="0px" y="0px"
	 width="100%" viewBox="0 0 400 400" enable-background="new 0 0 400 400" xml:space="preserve">
<path fill="#006AFE" opacity="1.000000" stroke="none" 
	d="
M275.000000,401.000000 
	C183.361816,401.000000 92.223633,401.000000 1.042727,401.000000 
	C1.042727,267.736816 1.042727,134.473633 1.042727,1.105217 
	C134.221451,1.105217 267.443024,1.105217 400.832275,1.105217 
	C400.832275,134.333160 400.832275,267.666565 400.832275,401.000000 
	C359.140350,401.000000 317.320190,401.000000 275.000000,401.000000 
M277.995361,228.046524 
	C277.995361,228.046524 277.961517,228.051880 277.737671,227.439926 
	C276.449677,226.643463 275.161652,225.846985 273.441284,224.987762 
	C273.441284,224.987762 273.014465,224.894363 272.767426,224.266098 
	C272.551880,215.471207 269.146484,212.850800 262.547668,216.131119 
	C264.406708,217.144409 266.402069,218.232025 268.397430,219.319626 
	C268.186798,219.688965 267.976196,220.058319 267.765564,220.427658 
	C266.822021,220.661026 265.878448,220.894379 264.291412,221.087494 
	C263.494202,220.796967 262.696991,220.506424 261.755676,219.627213 
	C260.821625,219.448318 259.887543,219.269424 258.109161,219.092880 
	C256.423462,219.000824 254.737778,218.908768 252.861664,218.261002 
	C251.683395,215.889908 250.370071,216.133682 248.321564,218.055450 
	C247.890610,218.023926 247.459656,217.992401 246.942719,217.245880 
	C244.795013,215.249954 242.647324,213.254028 240.130219,210.914780 
	C239.065277,213.011642 238.482986,214.158157 237.190750,215.184555 
	C235.751389,213.802399 234.312027,212.420227 233.631775,211.018906 
	C234.833511,210.473663 236.035263,209.928406 237.237000,209.383148 
	C236.786011,208.550018 236.261826,206.981277 235.897324,207.017548 
	C234.653687,207.141251 233.459915,207.814621 232.260651,208.310974 
	C231.811890,208.496719 231.400345,208.772369 230.759338,208.351227 
	C230.465988,207.240738 230.172623,206.130234 230.556396,204.756821 
	C232.899353,200.417145 237.061966,196.513107 234.256973,190.286057 
	C236.485168,188.848969 238.713364,187.411880 241.884521,185.973434 
	C248.180832,186.283890 254.479370,186.555573 260.772522,186.920731 
	C264.052979,187.111069 266.810181,186.886047 268.871429,183.537384 
	C270.384064,181.079956 272.669159,178.705963 275.177795,177.329895 
	C281.733582,173.733810 286.548645,168.735703 289.682159,162.022186 
	C290.806671,159.613007 291.885284,157.181976 293.046143,154.790680 
	C293.226685,154.418762 293.736389,154.206635 294.147217,153.877945 
	C294.777924,154.886002 295.327118,155.763763 296.653595,157.883850 
	C297.683502,154.833908 298.813202,152.957382 298.880402,151.043549 
	C299.231750,141.036301 299.313507,131.019592 299.490448,120.922340 
	C293.364471,120.132301 288.522034,112.925377 288.120331,103.085495 
	C286.306946,102.788322 284.493591,102.491150 282.544098,102.171677 
	C283.194214,100.209953 283.615417,98.938965 283.942749,97.951332 
	C280.364105,97.252190 277.181213,96.630371 273.607117,95.599052 
	C273.070099,95.068497 272.533112,94.537941 272.049286,93.309959 
	C273.138184,88.650452 269.828857,86.518402 266.521210,85.490227 
	C263.352203,84.505142 263.126434,87.598434 262.256989,89.711456 
	C258.511597,89.107269 254.766220,88.503075 251.201385,87.282768 
	C252.098465,86.103874 252.995544,84.924980 254.376373,83.110382 
	C245.541077,83.110382 237.561630,83.110382 229.582184,83.110382 
	C229.427597,83.502434 229.273010,83.894493 229.118423,84.286545 
	C230.210205,84.849388 231.289337,85.438698 232.396820,85.968727 
	C233.968979,86.721153 235.562027,87.429955 236.554276,88.558571 
	C234.005829,89.229050 231.479126,90.349777 228.904312,90.474129 
	C223.901001,90.715752 220.189270,92.682228 217.116165,96.640770 
	C214.518082,99.987411 211.865936,103.853485 208.310104,105.755348 
	C203.701660,108.220207 202.667572,111.708855 202.056854,116.112785 
	C201.635864,119.148636 200.766861,122.122345 199.679626,124.437462 
	C199.068329,121.802597 198.457016,119.167732 197.613708,115.532845 
	C194.280457,120.514214 194.204895,143.749161 196.270859,146.499252 
	C197.419815,144.778198 198.675400,142.897400 199.991974,141.777039 
	C198.277985,150.741913 204.623642,157.614197 206.268372,165.714966 
	C206.474915,166.732254 207.677155,167.513535 208.253860,168.500122 
	C208.723038,169.302811 209.268570,170.265091 209.226120,171.129395 
	C208.952560,176.699997 205.432098,180.440704 201.321182,183.434280 
	C199.037216,185.097458 195.640991,187.072266 193.334488,186.506714 
	C187.377304,185.046066 181.459641,183.800446 177.464096,177.340179 
	C171.472046,167.651779 163.814651,159.576355 152.010788,155.592743 
	C134.952866,149.835983 119.484131,152.182281 105.358253,162.260681 
	C99.826355,166.207520 93.484940,170.264999 90.942184,177.408615 
	C90.171219,179.574539 89.709152,181.850433 88.543465,183.676346 
	C87.474533,182.892288 86.405594,182.108231 85.159927,181.194534 
	C82.236168,190.216492 82.474533,191.688797 87.044029,195.754898 
	C87.007889,196.493607 86.971748,197.232315 86.389038,198.207916 
	C85.944427,198.834274 85.499817,199.460617 85.136078,200.841797 
	C86.821388,208.320190 88.391113,215.827789 90.268242,223.257721 
	C90.777023,225.271561 91.898132,227.333206 93.283478,228.886627 
	C98.226334,234.429230 103.389580,239.776154 108.513214,245.155426 
	C109.061241,245.730804 109.845398,246.253326 110.605583,246.428070 
	C118.642021,248.275299 126.683121,250.108673 134.758789,251.771790 
	C135.947617,252.016617 137.343353,251.431778 138.607941,251.096924 
	C141.162811,250.420425 143.795547,249.893738 146.212814,248.871628 
	C151.387756,246.683533 157.914612,247.146484 161.960526,241.136673 
	C166.101288,238.000290 170.642151,235.262299 174.271820,231.617020 
	C178.003098,227.869736 180.844971,223.236847 184.083649,219.768478 
	C185.557465,220.797287 186.972122,221.942383 188.558807,222.749222 
	C188.849335,222.897003 189.839493,221.668930 190.506699,221.075928 
	C188.913940,220.371033 187.327667,219.650757 185.722382,218.975693 
	C185.439041,218.856537 185.076340,218.926132 184.737900,218.330902 
	C188.573761,214.219162 193.536255,216.545609 197.763474,216.615173 
	C196.692932,217.786850 195.622375,218.958511 194.573212,220.106796 
	C198.043961,223.991333 198.864807,223.827789 202.603241,219.303772 
	C203.990509,221.746124 205.246155,224.275726 206.794235,226.611496 
	C209.482681,230.667892 210.075439,234.469040 205.413422,238.202240 
	C203.453384,240.112503 201.361145,241.906723 199.561218,243.957504 
	C195.962524,248.057755 196.237762,249.168350 201.070160,252.682571 
	C200.191559,256.381226 198.759583,260.053009 198.578125,263.785522 
	C198.364151,268.187225 199.027527,272.673370 199.710388,277.060699 
	C200.103424,279.586121 201.572113,281.933746 202.057205,284.457428 
	C203.135300,290.066010 204.696274,295.174622 211.157898,297.688599 
	C213.765579,300.442444 216.680511,302.971252 218.903656,306.006744 
	C221.722061,309.854980 225.346756,311.505280 229.901337,311.882355 
	C231.690613,312.030457 233.469482,312.556244 235.203842,313.074799 
	C247.582108,316.775665 259.410889,314.876740 270.806976,309.425873 
	C274.680817,307.572998 278.298126,305.183746 282.572754,302.729523 
	C282.519043,302.187653 282.373077,300.715515 282.857544,298.975189 
	C284.710083,298.548950 286.562653,298.122681 287.449280,297.918701 
	C288.538361,294.676910 289.367401,292.102814 290.266815,289.553467 
	C292.406372,283.489044 295.477112,277.582214 296.491516,271.338715 
	C297.552185,264.810669 297.588379,257.795746 293.114929,251.094330 
	C291.068054,246.417755 289.021149,241.741196 287.143188,236.344147 
	C287.231781,233.799484 288.052460,230.957718 287.178284,228.803787 
	C286.473694,227.067627 283.721924,226.162292 281.714661,224.775192 
	C281.085419,227.728516 280.742310,229.338821 279.861877,230.785690 
	C279.682465,230.732147 279.503082,230.678589 279.208069,230.097580 
	C279.125122,229.747498 279.042145,229.397415 278.679169,228.661255 
	C278.472534,228.417145 278.238892,228.202408 277.995361,228.046524 
M198.828217,284.098145 
	C198.301178,282.519501 197.774124,280.940826 197.247086,279.362183 
	C196.552505,279.527344 195.857925,279.692505 195.163345,279.857666 
	C195.451920,281.860535 195.740494,283.863373 196.029068,285.866241 
	C196.909805,285.507080 197.790543,285.147919 198.828217,284.098145 
M259.162598,84.680473 
	C259.353485,84.074554 259.544403,83.468643 259.735291,82.862724 
	C259.138062,82.836678 258.540802,82.810631 257.943573,82.784584 
	C258.170563,83.407494 258.397552,84.030403 259.162598,84.680473 
z"/>
<path fill="#206FD6" opacity="1.000000" stroke="none" 
	d="
M251.020828,87.898880 
	C254.766220,88.503075 258.511597,89.107269 262.974762,89.924164 
	C266.460388,91.427048 269.228241,92.717216 271.996094,94.007385 
	C272.533112,94.537941 273.070099,95.068497 273.792938,96.104164 
	C273.970032,96.809502 273.961304,97.009720 273.600861,97.110535 
	C271.928406,96.317116 270.631592,95.572311 269.283295,94.936844 
	C253.823242,87.650360 238.647461,87.472214 223.847748,96.803360 
	C223.829941,96.806587 223.800720,96.827927 223.462708,96.878860 
	C200.808411,111.444458 194.545761,139.729736 208.908829,161.056335 
	C208.898987,161.021179 208.869781,161.088104 208.911591,161.469788 
	C209.745270,164.875320 210.537140,167.899170 211.254272,171.269089 
	C211.205383,172.084778 211.231216,172.554413 211.193085,173.251526 
	C211.129120,173.478989 211.200562,173.946136 211.103928,174.304993 
	C209.983902,177.101074 208.960495,179.538300 207.721313,182.076416 
	C207.237946,182.387466 207.093903,182.662399 206.765121,183.148773 
	C203.957840,184.951096 201.458832,186.606720 198.671143,188.245911 
	C197.867737,188.465240 197.353043,188.701004 196.402924,188.924316 
	C186.412949,189.941864 180.024979,185.491516 175.104660,177.615219 
	C169.972595,169.399963 163.617249,162.274948 154.015381,158.984802 
	C154.008453,159.004044 154.036652,158.970947 153.827087,158.719116 
	C152.391968,158.062897 151.166412,157.658508 149.638336,157.146606 
	C148.914673,156.966248 148.493546,156.893402 147.797668,156.547409 
	C135.380661,153.519684 123.671333,153.986191 112.618965,160.977509 
	C112.404343,161.017990 112.047867,161.270462 111.713226,161.298721 
	C106.521309,166.147003 101.664024,170.967041 96.799759,175.802887 
	C96.792778,175.818695 96.780869,175.851151 96.495461,176.036240 
	C77.763840,203.462418 95.199692,242.579559 127.719971,247.305466 
	C139.644043,249.038300 150.427811,246.269714 160.919724,240.911392 
	C161.046722,241.061264 161.298386,241.362961 161.298386,241.362961 
	C157.914612,247.146484 151.387756,246.683533 146.212814,248.871628 
	C143.795547,249.893738 141.162811,250.420425 138.607941,251.096924 
	C137.343353,251.431778 135.947617,252.016617 134.758789,251.771790 
	C126.683121,250.108673 118.642021,248.275299 110.605583,246.428070 
	C109.845398,246.253326 109.061241,245.730804 108.513214,245.155426 
	C103.389580,239.776154 98.226334,234.429230 93.283478,228.886627 
	C91.898132,227.333206 90.777023,225.271561 90.268242,223.257721 
	C88.391113,215.827789 86.821388,208.320190 85.369308,200.342316 
	C86.046898,199.218887 86.491257,198.594955 86.935616,197.971024 
	C86.971748,197.232315 87.007889,196.493607 87.194519,195.119385 
	C87.931870,191.014572 88.518738,187.545273 89.105598,184.075958 
	C89.709152,181.850433 90.171219,179.574539 90.942184,177.408615 
	C93.484940,170.264999 99.826355,166.207520 105.358253,162.260681 
	C119.484131,152.182281 134.952866,149.835983 152.010788,155.592743 
	C163.814651,159.576355 171.472046,167.651779 177.464096,177.340179 
	C181.459641,183.800446 187.377304,185.046066 193.334488,186.506714 
	C195.640991,187.072266 199.037216,185.097458 201.321182,183.434280 
	C205.432098,180.440704 208.952560,176.699997 209.226120,171.129395 
	C209.268570,170.265091 208.723038,169.302811 208.253860,168.500122 
	C207.677155,167.513535 206.474915,166.732254 206.268372,165.714966 
	C204.623642,157.614197 198.277985,150.741913 199.946411,140.979294 
	C199.966599,135.162308 200.032333,130.143066 200.098068,125.123825 
	C200.766861,122.122345 201.635864,119.148636 202.056854,116.112785 
	C202.667572,111.708855 203.701660,108.220207 208.310104,105.755348 
	C211.865936,103.853485 214.518082,99.987411 217.116165,96.640770 
	C220.189270,92.682228 223.901001,90.715752 228.904312,90.474129 
	C231.479126,90.349777 234.005829,89.229050 237.230225,88.324112 
	C242.277710,88.026070 246.649277,87.962471 251.020828,87.898880 
z"/>
<path fill="#146CE1" opacity="1.000000" stroke="none" 
	d="
M273.952606,97.209930 
	C273.961304,97.009720 273.970032,96.809502 273.988556,96.308914 
	C277.181213,96.630371 280.364105,97.252190 283.942749,97.951332 
	C283.615417,98.938965 283.194214,100.209953 282.544098,102.171677 
	C284.493591,102.491150 286.306946,102.788322 288.118896,103.078476 
	C288.522034,112.925377 293.364471,120.132301 299.490448,120.922340 
	C299.313507,131.019592 299.231750,141.036301 298.880402,151.043549 
	C298.813202,152.957382 297.683502,154.833908 296.653595,157.883850 
	C295.327118,155.763763 294.777924,154.886002 294.147217,153.877945 
	C293.736389,154.206635 293.226685,154.418762 293.046143,154.790680 
	C291.885284,157.181976 290.806671,159.613007 289.682159,162.022186 
	C286.548645,168.735703 281.733582,173.733810 275.177795,177.329895 
	C272.669159,178.705963 270.384064,181.079956 268.871429,183.537384 
	C266.810181,186.886047 264.052979,187.111069 260.772522,186.920731 
	C254.479370,186.555573 248.180832,186.283890 241.426910,185.629257 
	C240.988678,184.824966 241.008072,184.364838 241.224487,183.740967 
	C241.915817,183.459122 242.410126,183.341034 243.276459,183.389481 
	C248.136185,183.066376 252.623871,182.576736 257.321899,181.990234 
	C257.532196,181.893356 257.980682,181.778107 257.980682,181.778107 
	C257.980682,181.778107 258.443115,181.802216 258.818329,181.835144 
	C260.085175,181.510605 260.976837,181.153137 262.159454,180.581757 
	C267.730225,177.344513 273.010010,174.321152 278.601013,171.173508 
	C295.161621,156.118591 299.453064,132.427780 289.030396,114.597153 
	C287.396057,112.012535 285.806549,109.775093 284.173462,107.365814 
	C284.129852,107.193977 283.835785,106.995880 283.804565,106.759361 
	C283.593811,106.221741 283.328796,106.067696 282.990326,106.034447 
	C283.002319,106.008194 282.947449,106.026047 282.855713,105.703072 
	C279.826874,102.656708 276.889740,99.933319 273.952606,97.209930 
M296.592407,122.938347 
	C296.592407,122.938347 296.411346,122.984772 296.411346,122.984772 
	C296.411346,122.984772 296.588562,123.044922 296.592407,122.938347 
z"/>
<path fill="#206FD6" opacity="1.000000" stroke="none" 
	d="
M184.076019,218.991486 
	C180.844971,223.236847 178.003098,227.869736 174.271820,231.617020 
	C170.642151,235.262299 166.101288,238.000290 161.629456,241.249817 
	C161.298386,241.362961 161.046722,241.061264 161.048080,240.664948 
	C161.370331,239.829193 161.691208,239.389740 162.278961,238.884796 
	C163.074539,238.332260 163.603226,237.845245 164.386002,237.255997 
	C164.756653,237.013336 164.873230,236.872894 165.283173,236.606613 
	C167.246948,234.601166 168.917358,232.721573 170.697998,230.800278 
	C170.808243,230.758575 170.843475,230.525497 171.111893,230.358856 
	C173.973602,226.515228 176.566895,222.838257 179.460175,219.003479 
	C185.972321,212.779434 193.096542,211.792572 200.986679,215.015030 
	C200.993118,214.994568 200.961746,215.025375 201.148682,215.307220 
	C210.858994,221.760315 213.782303,231.341415 208.404633,241.328766 
	C198.306763,260.082489 198.753754,278.059662 211.162842,295.902405 
	C211.052673,296.533112 211.009705,296.785614 210.966751,297.038086 
	C204.696274,295.174622 203.135300,290.066010 202.057205,284.457428 
	C201.572113,281.933746 200.103424,279.586121 199.710388,277.060699 
	C199.027527,272.673370 198.364151,268.187225 198.578125,263.785522 
	C198.759583,260.053009 200.191559,256.381226 201.324921,252.087311 
	C202.404633,249.016739 203.229568,246.541458 204.173752,243.808334 
	C204.527863,243.035400 204.762741,242.520279 205.077972,241.672516 
	C205.467346,240.243973 205.776367,239.148087 206.085388,238.052200 
	C210.075439,234.469040 209.482681,230.667892 206.794235,226.611496 
	C205.246155,224.275726 203.990509,221.746124 202.097168,218.886444 
	C200.393387,217.649551 199.195694,216.830002 197.998001,216.010452 
	C193.536255,216.545609 188.573761,214.219162 184.576202,218.636017 
	C184.414505,218.941147 184.076019,218.991486 184.076019,218.991486 
z"/>
<path fill="#2771CC" opacity="1.000000" stroke="none" 
	d="
M211.062317,297.363342 
	C211.009705,296.785614 211.052673,296.533112 211.401093,296.071960 
	C212.153595,296.214294 212.600616,296.565308 213.038849,296.945160 
	C213.030075,296.973969 213.090042,296.965454 213.158478,297.198792 
	C213.418686,297.719879 213.685287,297.891235 214.011398,297.969208 
	C213.996094,297.992249 214.048401,297.974274 214.106110,298.225098 
	C214.450348,298.641205 214.736877,298.806458 215.112854,299.202881 
	C215.399979,299.723022 215.670959,299.899048 216.144562,300.274811 
	C217.944839,301.951477 219.536667,303.428619 221.299225,304.661743 
	C236.869949,315.555389 259.789886,315.747742 273.101105,305.120972 
	C273.103455,305.098511 273.142731,305.120850 273.479645,305.071381 
	C276.482300,302.953156 279.148071,300.884399 281.917419,298.922302 
	C282.021027,299.028961 282.227112,299.243347 282.227112,299.243347 
	C282.373077,300.715515 282.519043,302.187653 282.572754,302.729523 
	C278.298126,305.183746 274.680817,307.572998 270.806976,309.425873 
	C259.410889,314.876740 247.582108,316.775665 235.203842,313.074799 
	C233.469482,312.556244 231.690613,312.030457 229.901337,311.882355 
	C225.346756,311.505280 221.722061,309.854980 218.903656,306.006744 
	C216.680511,302.971252 213.765579,300.442444 211.062317,297.363342 
z"/>
<path fill="#0867F8" opacity="1.000000" stroke="none" 
	d="
M199.888855,124.780640 
	C200.032333,130.143066 199.966599,135.162308 199.915924,140.599075 
	C198.675400,142.897400 197.419815,144.778198 196.270859,146.499252 
	C194.204895,143.749161 194.280457,120.514214 197.613708,115.532845 
	C198.457016,119.167732 199.068329,121.802597 199.888855,124.780640 
z"/>
<path fill="#2771CC" opacity="1.000000" stroke="none" 
	d="
M293.255219,251.853027 
	C297.588379,257.795746 297.552185,264.810669 296.491516,271.338715 
	C295.477112,277.582214 292.406372,283.489044 290.266815,289.553467 
	C289.367401,292.102814 288.538361,294.676910 287.449280,297.918701 
	C286.562653,298.122681 284.710083,298.548950 282.542328,299.109253 
	C282.227112,299.243347 282.021027,299.028961 282.010681,298.634705 
	C282.413361,297.562256 282.826385,296.884094 283.153320,296.111816 
	C283.067230,296.017731 283.219635,296.221710 283.527039,296.084869 
	C285.303925,293.697479 286.773346,291.446899 288.204681,289.186646 
	C288.166565,289.176971 288.181915,289.254120 288.410645,289.127716 
	C288.713715,288.672241 288.788055,288.343170 288.984863,287.861145 
	C289.107361,287.708160 289.156250,287.319305 289.432617,287.083038 
	C295.420593,275.698547 295.688812,264.085449 292.817078,252.110016 
	C292.965515,252.028519 293.255219,251.853027 293.255219,251.853027 
z"/>
<path fill="#3276CA" opacity="1.000000" stroke="none" 
	d="
M241.027466,183.904724 
	C241.008072,184.364838 240.988678,184.824966 240.955414,185.629929 
	C238.713364,187.411880 236.485168,188.848969 233.790695,190.772797 
	C228.984970,195.047318 227.884857,199.646133 229.879272,205.019730 
	C230.172623,206.130234 230.465988,207.240738 230.998398,208.930359 
	C231.782532,210.019012 232.327606,210.528534 232.872665,211.038071 
	C234.312027,212.420227 235.751389,213.802399 237.683075,215.481323 
	C238.534622,216.426254 238.893845,217.074417 239.145370,217.847824 
	C239.037674,217.973068 238.822464,218.223724 238.491577,218.187653 
	C237.512878,218.007629 236.865082,217.863663 236.211792,217.757141 
	C236.206299,217.794601 236.281662,217.787415 236.140625,217.563568 
	C235.667465,217.248779 235.335342,217.157806 234.905304,216.946564 
	C234.807388,216.826294 234.503464,216.764297 234.354401,216.487900 
	C233.141800,215.277374 232.078247,214.343246 230.948959,213.268890 
	C230.883224,213.128677 230.603119,212.996552 230.470978,212.689835 
	C224.361343,200.808044 226.767975,192.152695 238.093445,184.134430 
	C238.009460,184.076935 238.160141,184.214432 238.521271,184.194656 
	C239.597412,184.084824 240.312454,183.994766 241.027466,183.904724 
z"/>
<path fill="#0867F8" opacity="1.000000" stroke="none" 
	d="
M251.111115,87.590820 
	C246.649277,87.962471 242.277710,88.026070 237.526154,88.123535 
	C235.562027,87.429955 233.968979,86.721153 232.396820,85.968727 
	C231.289337,85.438698 230.210205,84.849388 229.118423,84.286545 
	C229.273010,83.894493 229.427597,83.502434 229.582184,83.110382 
	C237.561630,83.110382 245.541077,83.110382 254.376373,83.110382 
	C252.995544,84.924980 252.098465,86.103874 251.111115,87.590820 
z"/>
<path fill="#0867F8" opacity="1.000000" stroke="none" 
	d="
M280.399231,230.949142 
	C280.742310,229.338821 281.085419,227.728516 281.714661,224.775192 
	C283.721924,226.162292 286.473694,227.067627 287.178284,228.803787 
	C288.052460,230.957718 287.231781,233.799484 286.760254,236.563354 
	C285.542938,236.541763 284.708588,236.300980 283.907654,236.040359 
	C283.941101,236.020538 283.984833,236.084824 283.849487,235.838196 
	C283.411560,235.375183 283.108978,235.158798 282.637512,234.854675 
	C282.276062,234.590988 282.142395,234.378113 281.936096,233.873077 
	C281.502441,233.389572 281.200256,233.161270 280.727203,232.855759 
	C280.322327,232.653900 280.175323,232.462509 280.189758,231.891342 
	C280.309235,231.368591 280.354218,231.158875 280.399231,230.949142 
z"/>
<path fill="#3276CA" opacity="1.000000" stroke="none" 
	d="
M261.899780,220.215881 
	C262.696991,220.506424 263.494202,220.796967 264.895813,221.299469 
	C268.004944,222.639084 270.509705,223.766724 273.014465,224.894363 
	C273.014465,224.894363 273.441284,224.987762 273.716553,225.297638 
	C274.099426,225.970322 274.207001,226.333099 274.177490,226.840271 
	C274.040344,226.984650 273.766724,227.273941 273.432556,227.155701 
	C269.750092,225.646240 266.401794,224.254990 262.755127,222.631866 
	C258.089844,221.637573 253.721848,220.881317 249.356369,220.110779 
	C245.843475,219.490738 242.333649,218.853394 238.822464,218.223724 
	C238.822464,218.223724 239.037674,217.973068 239.564590,217.909119 
	C242.403900,217.883728 244.716309,217.922318 247.028702,217.960876 
	C247.459656,217.992401 247.890610,218.023926 248.949127,218.237274 
	C250.735153,218.551636 251.893616,218.684174 253.052094,218.816711 
	C254.737778,218.908768 256.423462,219.000824 258.789307,219.281357 
	C260.279541,219.718521 261.089661,219.967209 261.899780,220.215881 
z"/>
<path fill="#0768F0" opacity="1.000000" stroke="none" 
	d="
M88.824532,183.876160 
	C88.518738,187.545273 87.931870,191.014572 87.203087,194.749695 
	C82.474533,191.688797 82.236168,190.216492 85.159927,181.194534 
	C86.405594,182.108231 87.474533,182.892288 88.824532,183.876160 
z"/>
<path fill="#0768F0" opacity="1.000000" stroke="none" 
	d="
M204.054504,244.066162 
	C203.229568,246.541458 202.404633,249.016739 201.359436,251.754120 
	C196.237762,249.168350 195.962524,248.057755 199.561218,243.957504 
	C201.361145,241.906723 203.453384,240.112503 205.749405,238.127228 
	C205.776367,239.148087 205.467346,240.243973 204.846100,241.747681 
	C204.374069,242.792389 204.214279,243.429276 204.054504,244.066162 
z"/>
<path fill="#0768F0" opacity="1.000000" stroke="none" 
	d="
M272.890930,224.580231 
	C270.509705,223.766724 268.004944,222.639084 265.217529,221.319595 
	C265.878448,220.894379 266.822021,220.661026 267.765564,220.427658 
	C267.976196,220.058319 268.186798,219.688965 268.397430,219.319626 
	C266.402069,218.232025 264.406708,217.144409 262.547668,216.131119 
	C269.146484,212.850800 272.551880,215.471207 272.890930,224.580231 
z"/>
<path fill="#0768F0" opacity="1.000000" stroke="none" 
	d="
M230.217834,204.888275 
	C227.884857,199.646133 228.984970,195.047318 233.604889,191.055756 
	C237.061966,196.513107 232.899353,200.417145 230.217834,204.888275 
z"/>
<path fill="#0768F0" opacity="1.000000" stroke="none" 
	d="
M272.022705,93.658676 
	C269.228241,92.717216 266.460388,91.427048 263.339844,90.050583 
	C263.126434,87.598434 263.352203,84.505142 266.521210,85.490227 
	C269.828857,86.518402 273.138184,88.650452 272.022705,93.658676 
z"/>
<path fill="#0768F0" opacity="1.000000" stroke="none" 
	d="
M246.985718,217.603394 
	C244.716309,217.922318 242.403900,217.883728 239.672287,217.783875 
	C238.893845,217.074417 238.534622,216.426254 238.038055,215.541382 
	C238.482986,214.158157 239.065277,213.011642 240.130219,210.914780 
	C242.647324,213.254028 244.795013,215.249954 246.985718,217.603394 
z"/>
<path fill="#3276CA" opacity="1.000000" stroke="none" 
	d="
M283.874207,236.060181 
	C284.708588,236.300980 285.542938,236.541763 286.675781,236.923584 
	C289.021149,241.741196 291.068054,246.417755 293.185059,251.473679 
	C293.255219,251.853027 292.965515,252.028519 292.588440,251.868988 
	C291.559021,250.290649 290.906647,248.871826 290.110168,247.297729 
	C289.713409,247.008347 289.445190,246.923492 289.136932,246.524475 
	C288.334839,244.432999 287.557220,242.704910 286.758362,240.746017 
	C286.567993,240.237961 286.328033,240.052307 285.937439,239.662613 
	C285.219086,238.584625 284.580475,237.802277 283.925262,236.779953 
	C283.908630,236.539993 283.874207,236.060181 283.874207,236.060181 
z"/>
<path fill="#0768F0" opacity="1.000000" stroke="none" 
	d="
M197.880737,216.312805 
	C199.195694,216.830002 200.393387,217.649551 201.823639,218.670212 
	C198.864807,223.827789 198.043961,223.991333 194.573212,220.106796 
	C195.622375,218.958511 196.692932,217.786850 197.880737,216.312805 
z"/>
<path fill="#0768F0" opacity="1.000000" stroke="none" 
	d="
M198.749756,284.443451 
	C197.790543,285.147919 196.909805,285.507080 196.029068,285.866241 
	C195.740494,283.863373 195.451920,281.860535 195.163345,279.857666 
	C195.857925,279.692505 196.552505,279.527344 197.247086,279.362183 
	C197.774124,280.940826 198.301178,282.519501 198.749756,284.443451 
z"/>
<path fill="#0768F0" opacity="1.000000" stroke="none" 
	d="
M184.079834,219.379974 
	C184.076019,218.991486 184.414505,218.941147 184.582397,218.924866 
	C185.076340,218.926132 185.439041,218.856537 185.722382,218.975693 
	C187.327667,219.650757 188.913940,220.371033 190.506699,221.075928 
	C189.839493,221.668930 188.849335,222.897003 188.558807,222.749222 
	C186.972122,221.942383 185.557465,220.797287 184.079834,219.379974 
z"/>
<path fill="#0768F0" opacity="1.000000" stroke="none" 
	d="
M233.252228,211.028488 
	C232.327606,210.528534 231.782532,210.019012 231.104645,209.258270 
	C231.400345,208.772369 231.811890,208.496719 232.260651,208.310974 
	C233.459915,207.814621 234.653687,207.141251 235.897324,207.017548 
	C236.261826,206.981277 236.786011,208.550018 237.237000,209.383148 
	C236.035263,209.928406 234.833511,210.473663 233.252228,211.028488 
z"/>
<path fill="#0867F8" opacity="1.000000" stroke="none" 
	d="
M258.893555,84.666901 
	C258.397552,84.030403 258.170563,83.407494 257.943573,82.784584 
	C258.540802,82.810631 259.138062,82.836678 259.735291,82.862724 
	C259.544403,83.468643 259.353485,84.074554 258.893555,84.666901 
z"/>
<path fill="#0768F0" opacity="1.000000" stroke="none" 
	d="
M252.956879,218.538849 
	C251.893616,218.684174 250.735153,218.551636 249.273254,218.239532 
	C250.370071,216.133682 251.683395,215.889908 252.956879,218.538849 
z"/>
<path fill="#3276CA" opacity="1.000000" stroke="none" 
	d="
M278.959167,229.047333 
	C279.042145,229.397415 279.125122,229.747498 279.137695,230.501343 
	C279.067291,230.905121 278.810608,231.179001 278.520569,231.041260 
	C276.742584,229.693665 275.254639,228.483795 273.766724,227.273941 
	C273.766724,227.273941 274.040344,226.984650 274.470459,226.972382 
	C275.920898,227.324036 276.941193,227.687958 277.961517,228.051880 
	C277.961517,228.051880 277.995361,228.046524 278.121552,228.229492 
	C278.451996,228.660919 278.689148,228.872543 278.959167,229.047333 
z"/>
<path fill="#0768F0" opacity="1.000000" stroke="none" 
	d="
M277.849609,227.745911 
	C276.941193,227.687958 275.920898,227.324036 274.607605,226.828003 
	C274.207001,226.333099 274.099426,225.970322 273.932739,225.329010 
	C275.161652,225.846985 276.449677,226.643463 277.849609,227.745911 
z"/>
<path fill="#0768F0" opacity="1.000000" stroke="none" 
	d="
M261.827728,219.921555 
	C261.089661,219.967209 260.279541,219.718521 259.211456,219.280182 
	C259.887543,219.269424 260.821625,219.448318 261.827728,219.921555 
z"/>
<path fill="#0768F0" opacity="1.000000" stroke="none" 
	d="
M86.662323,198.089478 
	C86.491257,198.594955 86.046898,199.218887 85.328873,199.964905 
	C85.499817,199.460617 85.944427,198.834274 86.662323,198.089478 
z"/>
<path fill="#0867F8" opacity="1.000000" stroke="none" 
	d="
M278.819153,228.854294 
	C278.689148,228.872543 278.451996,228.660919 278.112976,228.214752 
	C278.238892,228.202408 278.472534,228.417145 278.819153,228.854294 
z"/>
<path fill="#3276CA" opacity="1.000000" stroke="none" 
	d="
M280.130554,230.867416 
	C280.354218,231.158875 280.309235,231.368591 279.904236,231.814178 
	C279.299683,231.759689 279.055145,231.469345 278.810608,231.179001 
	C278.810608,231.179001 279.067291,230.905121 279.195496,230.765076 
	C279.503082,230.678589 279.682465,230.732147 280.130554,230.867416 
z"/>
<path fill="#FEFFFE" opacity="1.000000" stroke="none" 
	d="
M289.161438,246.887848 
	C289.445190,246.923492 289.713409,247.008347 290.060730,247.748032 
	C289.658051,251.010986 289.160736,253.668335 288.478790,257.312103 
	C291.660400,261.617645 293.591278,267.347015 291.987152,273.949890 
	C290.912262,278.374451 290.091003,282.860687 289.156250,287.319305 
	C289.156250,287.319305 289.107361,287.708160 288.820068,288.036865 
	C288.328430,288.627258 288.211487,288.923431 288.181915,289.254120 
	C288.181915,289.254120 288.166565,289.176971 287.823853,289.175262 
	C283.247772,289.822174 283.482605,293.172455 283.219635,296.221710 
	C283.219635,296.221710 283.067230,296.017731 282.792419,296.126709 
	C279.527435,297.507324 276.537262,298.778931 273.142731,300.222504 
	C273.142731,301.538849 273.142731,303.329834 273.142731,305.120850 
	C273.142731,305.120850 273.103455,305.098511 272.718872,305.082581 
	C271.505951,305.123322 270.581421,304.959290 269.864563,305.271729 
	C264.482666,307.617645 259.043823,309.399139 253.039536,308.088348 
	C252.298615,307.926605 250.838623,308.125366 250.721420,308.485565 
	C249.256378,312.988495 246.185562,310.645630 243.769516,310.059570 
	C239.909546,309.123291 236.038574,308.065277 232.361465,306.587799 
	C228.455368,305.018280 224.769730,302.900085 220.946960,300.665222 
	C218.264664,297.874420 215.623215,295.439911 212.731430,292.769226 
	C208.992813,287.069427 205.687668,281.549011 206.162292,273.816528 
	C202.799011,270.296448 202.169037,260.395874 205.057388,254.198181 
	C208.838943,246.083923 213.057785,238.035721 213.037582,228.993347 
	C214.966507,228.356461 216.763779,227.763046 218.227478,227.279755 
	C214.519333,224.029953 210.825562,221.541656 208.167191,218.223785 
	C206.075958,215.613724 203.971359,214.732361 200.961746,215.025375 
	C200.961746,215.025375 200.993118,214.994568 200.981201,214.675720 
	C200.938553,213.905502 200.907837,213.454102 201.033905,212.806427 
	C199.142731,212.099869 197.094788,211.589584 194.746948,210.988434 
	C191.290649,211.295624 188.134277,211.693680 184.684769,211.955582 
	C180.446838,210.423111 180.757874,214.506866 179.021851,215.989105 
	C179.004944,216.001694 178.977844,216.033981 178.619003,216.105988 
	C176.666946,216.579254 174.929932,216.708710 173.519272,217.455002 
	C171.981918,218.268311 169.739243,219.565918 169.630783,220.811462 
	C169.489120,222.438583 171.140823,224.221863 171.845245,226.249237 
	C171.394180,227.882172 171.118820,229.203842 170.843475,230.525497 
	C170.843475,230.525497 170.808243,230.758575 170.345047,230.701324 
	C168.203522,232.405777 166.525208,234.167480 164.697388,236.151733 
	C164.409241,236.702255 164.270584,237.030243 164.131912,237.358215 
	C163.603226,237.845245 163.074539,238.332260 162.154907,238.602173 
	C159.854919,238.964294 157.544693,239.053146 156.117172,240.220993 
	C152.754272,242.972107 149.568420,244.740723 145.683777,241.669235 
	C141.112183,245.650711 135.519714,246.563019 130.286819,244.759140 
	C128.056152,243.990204 125.563805,243.681442 123.190887,243.683762 
	C117.566101,243.689270 113.345825,239.731873 112.410034,234.151642 
	C112.016228,231.803314 110.063942,229.716324 108.820129,227.510544 
	C107.710320,228.915390 106.616524,230.333649 105.467255,231.705444 
	C105.345039,231.851318 104.898048,231.725082 104.320190,231.725082 
	C104.320190,229.812012 104.320190,227.879715 104.320190,227.369949 
	C101.339523,225.312210 98.311928,224.319901 97.308708,222.314743 
	C94.743462,217.187531 92.890396,211.671051 91.104309,206.195480 
	C88.966469,199.641556 90.142075,196.698853 95.046600,193.427429 
	C95.659149,187.219467 96.220009,181.535309 96.780869,175.851151 
	C96.780869,175.851151 96.792778,175.818695 97.129601,175.816620 
	C99.990501,175.894867 101.589081,175.194489 102.634392,172.410507 
	C103.306992,170.619186 105.915611,168.150696 107.405983,168.311234 
	C114.207352,169.043884 112.793076,165.089005 112.047867,161.270462 
	C112.047867,161.270462 112.404343,161.017990 113.042107,160.994965 
	C115.781212,160.582245 117.876221,160.153748 119.985092,159.810287 
	C125.951279,158.838577 131.903336,157.737076 137.900528,157.015747 
	C141.250534,156.612854 144.679184,156.864090 148.072403,156.820557 
	C148.493546,156.893402 148.914673,156.966248 149.802551,157.441071 
	C151.525070,158.219009 152.780869,158.594986 154.036652,158.970947 
	C154.036652,158.970947 154.008453,159.004044 154.095764,159.319336 
	C157.052887,162.156937 160.101196,164.507034 162.744934,167.247421 
	C165.696228,170.306595 168.280151,173.720169 170.704956,177.108582 
	C169.983841,179.170212 169.581757,181.102753 169.179657,183.035278 
	C171.473450,183.357040 173.767227,183.678802 176.328217,184.119110 
	C177.062775,185.565506 177.530151,186.893356 177.806381,187.678162 
	C187.588959,191.500809 197.188278,192.510330 206.851486,188.144562 
	C207.235123,186.580521 207.663513,184.834000 208.444061,182.980484 
	C213.086075,181.209702 216.519760,170.269363 213.797836,166.721375 
	C213.480087,166.307205 212.578705,166.340759 211.776276,165.850922 
	C210.693039,164.052765 209.781418,162.570435 208.869781,161.088104 
	C208.869781,161.088104 208.898987,161.021179 208.932358,160.644653 
	C208.407318,158.042221 207.880371,155.807831 207.284729,153.591904 
	C205.328873,146.315521 201.379654,139.353043 203.984299,131.381561 
	C205.868958,125.613586 206.960281,119.455841 209.697281,114.136642 
	C212.047256,109.569550 215.521744,104.549011 219.833878,102.366356 
	C223.000473,100.763550 224.078842,99.909248 223.800720,96.827927 
	C223.800720,96.827927 223.829941,96.806587 224.244781,96.853546 
	C226.557190,96.379837 228.529694,96.043839 230.340363,95.309044 
	C243.780899,89.854736 256.844696,91.249245 269.655701,97.359489 
	C270.666229,97.841454 272.050323,98.578705 272.293030,99.462944 
	C273.833618,105.075600 278.729065,104.948494 282.947449,106.026047 
	C282.947449,106.026047 283.002319,106.008194 283.080811,106.233330 
	C283.330170,106.706367 283.555664,106.885506 283.835785,106.995880 
	C283.835785,106.995880 284.129852,107.193977 284.133484,107.796036 
	C284.210602,112.374146 284.550018,116.214394 289.026794,118.343948 
	C289.662476,123.710243 288.868378,128.774704 291.580688,133.607941 
	C292.702759,135.607391 291.463379,138.984222 291.155121,141.718536 
	C290.880096,144.158478 290.408234,146.576218 289.632050,149.015701 
	C287.812775,150.286774 286.368927,151.528610 284.960846,152.809708 
	C283.423798,154.208145 282.003174,155.749451 280.372711,157.025162 
	C279.249664,157.903870 277.837036,158.404114 276.586334,159.129517 
	C271.359375,162.161209 273.727020,166.833618 273.703125,171.202454 
	C271.574432,172.115219 269.069641,172.380646 268.099945,173.740616 
	C263.775787,179.805084 257.768127,179.632706 251.335220,179.559021 
	C247.402832,179.513992 243.430649,180.836319 239.535675,181.787506 
	C238.916519,181.938705 238.610779,183.373215 238.160141,184.214432 
	C238.160141,184.214432 238.009460,184.076935 237.707275,184.065964 
	C234.919174,182.898621 232.433273,181.742264 229.026382,180.157471 
	C229.920792,182.858856 230.487228,184.569656 231.286652,186.984192 
	C225.174911,184.980850 224.547668,187.602142 225.715729,192.135696 
	C226.156265,193.845581 225.850174,195.758041 225.819489,197.577042 
	C225.755569,201.366577 225.583984,205.155289 225.578308,208.944504 
	C225.573303,212.279190 227.046677,213.979996 230.603119,212.996552 
	C230.603119,212.996552 230.883224,213.128677 230.828949,213.633850 
	C232.017593,215.014130 233.260529,215.889221 234.503464,216.764297 
	C234.503464,216.764297 234.807388,216.826294 235.082947,217.123291 
	C235.666229,217.542679 235.973953,217.665054 236.281662,217.787415 
	C236.281662,217.787415 236.206299,217.794601 236.264557,218.091049 
	C237.066086,219.637451 237.809341,220.887405 238.125443,221.418991 
	C241.088715,221.418991 243.362793,221.196182 245.578156,221.462265 
	C251.407455,222.162369 257.211212,223.075073 263.292145,224.054642 
	C264.386963,224.790497 265.214783,225.374817 265.894592,226.291656 
	C266.129974,228.351379 266.290802,231.452866 266.936920,231.557480 
	C269.206940,231.925064 271.643890,231.262024 274.348297,231.068298 
	C277.140930,233.089386 279.602722,235.032364 282.111145,237.291046 
	C282.443207,238.405411 282.728668,239.204117 282.772766,240.268921 
	C282.453186,242.802261 282.374969,245.069504 282.296753,247.336731 
	C284.201599,247.223312 286.106445,247.109894 288.299225,246.973648 
	C288.778625,246.929825 288.970032,246.908829 289.161438,246.887848 
M278.566010,109.270767 
	C277.539612,108.663467 276.513245,108.056160 275.486847,107.448853 
	C275.286682,108.005173 275.086517,108.561493 274.886322,109.117813 
	C276.039490,109.365761 277.192657,109.613708 278.566010,109.270767 
M110.050911,172.858490 
	C109.712921,172.135849 109.374924,171.413193 109.036926,170.690552 
	C108.519714,171.210556 108.002502,171.730576 107.485291,172.250580 
	C108.203049,172.583908 108.920807,172.917236 110.050911,172.858490 
M243.517761,307.537689 
	C243.248856,307.435638 242.984177,307.316162 242.706833,307.249054 
	C242.661774,307.238190 242.560593,307.459290 242.485352,307.573151 
	C242.773315,307.631348 243.061279,307.689545 243.517761,307.537689 
z"/>
<path fill="#E8F8FB" opacity="1.000000" stroke="none" 
	d="
M96.495461,176.036240 
	C96.220009,181.535309 95.659149,187.219467 95.046600,193.427429 
	C90.142075,196.698853 88.966469,199.641556 91.104309,206.195480 
	C92.890396,211.671051 94.743462,217.187531 97.308708,222.314743 
	C98.311928,224.319901 101.339523,225.312210 104.320190,227.369949 
	C104.320190,227.879715 104.320190,229.812012 104.320190,231.725082 
	C104.898048,231.725082 105.345039,231.851318 105.467255,231.705444 
	C106.616524,230.333649 107.710320,228.915390 108.820129,227.510544 
	C110.063942,229.716324 112.016228,231.803314 112.410034,234.151642 
	C113.345825,239.731873 117.566101,243.689270 123.190887,243.683762 
	C125.563805,243.681442 128.056152,243.990204 130.286819,244.759140 
	C135.519714,246.563019 141.112183,245.650711 145.683777,241.669235 
	C149.568420,244.740723 152.754272,242.972107 156.117172,240.220993 
	C157.544693,239.053146 159.854919,238.964294 161.888031,238.667694 
	C161.691208,239.389740 161.370331,239.829193 160.921082,240.515076 
	C150.427811,246.269714 139.644043,249.038300 127.719971,247.305466 
	C95.199692,242.579559 77.763840,203.462418 96.495461,176.036240 
z"/>
<path fill="#DBF4FC" opacity="1.000000" stroke="none" 
	d="
M171.023972,176.979492 
	C168.280151,173.720169 165.696228,170.306595 162.744934,167.247421 
	C160.101196,164.507034 157.052887,162.156937 154.102676,159.300110 
	C163.617249,162.274948 169.972595,169.399963 175.104660,177.615219 
	C180.024979,185.491516 186.412949,189.941864 196.685181,188.903442 
	C197.921844,188.684143 198.440826,188.473236 198.959824,188.262329 
	C201.458832,186.606720 203.957840,184.951096 206.963577,183.110733 
	C207.470306,182.925995 207.871826,182.877731 207.926819,182.930206 
	C207.981812,182.982681 208.091904,183.087494 208.091888,183.087494 
	C207.663513,184.834000 207.235123,186.580521 206.851486,188.144562 
	C197.188278,192.510330 187.588959,191.500809 177.806381,187.678162 
	C177.530151,186.893356 177.062775,185.565506 176.152130,183.836227 
	C174.147232,181.283035 172.585602,179.131271 171.023972,176.979492 
z"/>
<path fill="#E2F6FC" opacity="1.000000" stroke="none" 
	d="
M223.462708,96.878860 
	C224.078842,99.909248 223.000473,100.763550 219.833878,102.366356 
	C215.521744,104.549011 212.047256,109.569550 209.697281,114.136642 
	C206.960281,119.455841 205.868958,125.613586 203.984299,131.381561 
	C201.379654,139.353043 205.328873,146.315521 207.284729,153.591904 
	C207.880371,155.807831 208.407318,158.042221 208.942200,160.679810 
	C194.545761,139.729736 200.808411,111.444458 223.462708,96.878860 
z"/>
<path fill="#E2F6FC" opacity="1.000000" stroke="none" 
	d="
M282.855713,105.703072 
	C278.729065,104.948494 273.833618,105.075600 272.293030,99.462944 
	C272.050323,98.578705 270.666229,97.841454 269.655701,97.359489 
	C256.844696,91.249245 243.780899,89.854736 230.340363,95.309044 
	C228.529694,96.043839 226.557190,96.379837 224.262589,96.850319 
	C238.647461,87.472214 253.823242,87.650360 269.283295,94.936844 
	C270.631592,95.572311 271.928406,96.317116 273.600861,97.110535 
	C276.889740,99.933319 279.826874,102.656708 282.855713,105.703072 
z"/>
<path fill="#DBF4FC" opacity="1.000000" stroke="none" 
	d="
M147.797668,156.547424 
	C144.679184,156.864090 141.250534,156.612854 137.900528,157.015747 
	C131.903336,157.737076 125.951279,158.838577 119.985092,159.810287 
	C117.876221,160.153748 115.781212,160.582245 113.256729,160.954468 
	C123.671333,153.986191 135.380661,153.519684 147.797668,156.547424 
z"/>
<path fill="#E8F8FB" opacity="1.000000" stroke="none" 
	d="
M111.713226,161.298721 
	C112.793076,165.089005 114.207352,169.043884 107.405983,168.311234 
	C105.915611,168.150696 103.306992,170.619186 102.634392,172.410507 
	C101.589081,175.194489 99.990501,175.894867 97.136581,175.800812 
	C101.664024,170.967041 106.521309,166.147003 111.713226,161.298721 
z"/>
<path fill="#DBF4FC" opacity="1.000000" stroke="none" 
	d="
M211.947891,166.166748 
	C212.578705,166.340759 213.480087,166.307205 213.797836,166.721375 
	C216.519760,170.269363 213.086075,181.209702 208.444061,182.980484 
	C208.091904,183.087494 207.981812,182.982681 207.935638,182.705170 
	C207.889481,182.427673 207.937103,181.975540 207.937103,181.975540 
	C208.960495,179.538300 209.983902,177.101074 211.176895,174.202484 
	C211.440292,173.488449 211.410477,173.249405 211.257050,173.024048 
	C211.231216,172.554413 211.205383,172.084778 211.394104,170.951996 
	C211.721741,168.914810 211.834808,167.540771 211.947891,166.166748 
z"/>
<path fill="#D1EFFE" opacity="1.000000" stroke="none" 
	d="
M211.776276,165.850922 
	C211.834808,167.540771 211.721741,168.914810 211.468842,170.605927 
	C210.537140,167.899170 209.745270,164.875320 208.911591,161.469788 
	C209.781418,162.570435 210.693039,164.052765 211.776276,165.850922 
z"/>
<path fill="#DBF4FC" opacity="1.000000" stroke="none" 
	d="
M153.827087,158.719116 
	C152.780869,158.594986 151.525070,158.219009 150.105072,157.548584 
	C151.166412,157.658508 152.391968,158.062897 153.827087,158.719116 
z"/>
<path fill="#D1EFFE" opacity="1.000000" stroke="none" 
	d="
M198.671143,188.245911 
	C198.440826,188.473236 197.921844,188.684143 197.120590,188.915909 
	C197.353043,188.701004 197.867737,188.465240 198.671143,188.245911 
z"/>
<path fill="#FEFFFE" opacity="1.000000" stroke="none" 
	d="
M207.721313,182.076416 
	C207.937103,181.975540 207.889481,182.427673 207.880646,182.652710 
	C207.871826,182.877731 207.470306,182.925995 207.271851,182.964035 
	C207.093903,182.662399 207.237946,182.387466 207.721313,182.076416 
z"/>
<path fill="#D1EFFE" opacity="1.000000" stroke="none" 
	d="
M211.193085,173.251526 
	C211.410477,173.249405 211.440292,173.488449 211.273529,173.843643 
	C211.200562,173.946136 211.129120,173.478989 211.193085,173.251526 
z"/>
<path fill="#DEF5FC" opacity="1.000000" stroke="none" 
	d="
M290.023193,149.003754 
	C290.408234,146.576218 290.880096,144.158478 291.155121,141.718536 
	C291.463379,138.984222 292.702759,135.607391 291.580688,133.607941 
	C288.868378,128.774704 289.662476,123.710243 289.026611,117.968643 
	C289.034302,116.446518 289.054749,115.695427 289.075195,114.944336 
	C299.453064,132.427780 295.161621,156.118591 278.483521,171.050110 
	C278.054810,171.051025 277.819977,170.804077 277.943512,170.499664 
	C279.059357,168.491730 280.051697,166.788193 281.333740,164.965179 
	C282.427307,163.907227 283.231171,162.968765 284.225037,161.735931 
	C286.284424,157.295609 288.153809,153.149673 290.023193,149.003754 
z"/>
<path fill="#DEF5FC" opacity="1.000000" stroke="none" 
	d="
M238.521271,184.194656 
	C238.610779,183.373215 238.916519,181.938705 239.535675,181.787506 
	C243.430649,180.836319 247.402832,179.513992 251.335220,179.559021 
	C257.768127,179.632706 263.775787,179.805084 268.099945,173.740616 
	C269.069641,172.380646 271.574432,172.115219 274.083557,171.194550 
	C275.803040,170.963516 276.811523,170.883804 277.819977,170.804077 
	C277.819977,170.804077 278.054810,171.051025 278.172302,171.174408 
	C273.010010,174.321152 267.730225,177.344513 261.793030,180.576691 
	C260.238098,181.124420 259.340607,181.463318 258.443115,181.802216 
	C258.443115,181.802216 257.980682,181.778107 257.980682,181.778107 
	C257.980682,181.778107 257.532196,181.893356 256.873962,181.926941 
	C251.778641,182.381332 247.341537,182.802139 242.904449,183.222961 
	C242.410126,183.341034 241.915817,183.459122 241.224487,183.740967 
	C240.312454,183.994766 239.597412,184.084824 238.521271,184.194656 
z"/>
<path fill="#E2F6FC" opacity="1.000000" stroke="none" 
	d="
M289.030396,114.597153 
	C289.054749,115.695427 289.034302,116.446518 289.013977,117.572922 
	C284.550018,116.214394 284.210602,112.374146 284.177063,107.967880 
	C285.806549,109.775093 287.396057,112.012535 289.030396,114.597153 
z"/>
<path fill="#3276CA" opacity="1.000000" stroke="none" 
	d="
M243.276459,183.389496 
	C247.341537,182.802139 251.778641,182.381332 256.663635,182.023804 
	C252.623871,182.576736 248.136185,183.066376 243.276459,183.389496 
z"/>
<path fill="#3276CA" opacity="1.000000" stroke="none" 
	d="
M258.818329,181.835144 
	C259.340607,181.463318 260.238098,181.124420 261.502014,180.790588 
	C260.976837,181.153137 260.085175,181.510605 258.818329,181.835144 
z"/>
<path fill="#006AFE" opacity="1.000000" stroke="none" 
	d="
M296.590485,122.991638 
	C296.588562,123.044922 296.411346,122.984772 296.411346,122.984772 
	C296.411346,122.984772 296.592407,122.938347 296.590485,122.991638 
z"/>
<path fill="#E2F6FC" opacity="1.000000" stroke="none" 
	d="
M283.804565,106.759361 
	C283.555664,106.885506 283.330170,106.706367 283.068817,106.259583 
	C283.328796,106.067696 283.593811,106.221741 283.804565,106.759361 
z"/>
<path fill="#DFF5FC" opacity="1.000000" stroke="none" 
	d="
M201.148682,215.307220 
	C203.971359,214.732361 206.075958,215.613724 208.167191,218.223785 
	C210.825562,221.541656 214.519333,224.029953 218.227478,227.279755 
	C216.763779,227.763046 214.966507,228.356461 213.037582,228.993347 
	C213.057785,238.035721 208.838943,246.083923 205.057388,254.198181 
	C202.169037,260.395874 202.799011,270.296448 206.162292,273.816528 
	C205.687668,281.549011 208.992813,287.069427 212.735168,293.160156 
	C213.008728,294.830322 213.028183,295.873322 213.047638,296.916351 
	C212.600616,296.565308 212.153595,296.214294 211.468307,295.693726 
	C198.753754,278.059662 198.306763,260.082489 208.404633,241.328766 
	C213.782303,231.341415 210.858994,221.760315 201.148682,215.307220 
z"/>
<path fill="#DFF5FC" opacity="1.000000" stroke="none" 
	d="
M200.877136,213.002716 
	C200.907837,213.454102 200.938553,213.905502 200.974762,214.696198 
	C193.096542,211.792572 185.972321,212.779434 179.393143,218.937195 
	C179.026138,219.028717 178.891968,218.896301 178.917694,218.539246 
	C178.954880,217.466125 178.966370,216.750046 178.977844,216.033981 
	C178.977844,216.033981 179.004944,216.001694 179.345093,215.911819 
	C181.449478,214.578537 183.213684,213.335144 184.977890,212.091736 
	C188.134277,211.693680 191.290649,211.295624 195.007324,211.209930 
	C197.337448,212.015778 199.107300,212.509247 200.877136,213.002716 
z"/>
<path fill="#DFF5FC" opacity="1.000000" stroke="none" 
	d="
M171.111893,230.358856 
	C171.118820,229.203842 171.394180,227.882172 171.875122,225.896881 
	C174.351135,223.120926 176.621552,221.008606 178.891968,218.896301 
	C178.891968,218.896301 179.026138,219.028717 179.093170,219.095001 
	C176.566895,222.838257 173.973602,226.515228 171.111893,230.358856 
z"/>
<path fill="#DFF5FC" opacity="1.000000" stroke="none" 
	d="
M164.846878,235.929199 
	C166.525208,234.167480 168.203522,232.405777 170.234802,230.743011 
	C168.917358,232.721573 167.246948,234.601166 165.247345,236.405823 
	C164.918152,236.330902 164.846878,235.929199 164.846878,235.929199 
z"/>
<path fill="#006AFE" opacity="1.000000" stroke="none" 
	d="
M204.173737,243.808334 
	C204.214279,243.429276 204.374069,242.792389 204.765747,242.080338 
	C204.762741,242.520279 204.527863,243.035400 204.173737,243.808334 
z"/>
<path fill="#E8F8FB" opacity="1.000000" stroke="none" 
	d="
M164.697388,236.151733 
	C164.846878,235.929199 164.918152,236.330902 164.953979,236.531677 
	C164.873230,236.872894 164.756653,237.013336 164.386002,237.255997 
	C164.270584,237.030243 164.409241,236.702255 164.697388,236.151733 
z"/>
<path fill="#DFF5FC" opacity="1.000000" stroke="none" 
	d="
M220.987808,301.021515 
	C224.769730,302.900085 228.455368,305.018280 232.361465,306.587799 
	C236.038574,308.065277 239.909546,309.123291 243.769516,310.059570 
	C246.185562,310.645630 249.256378,312.988495 250.721420,308.485565 
	C250.838623,308.125366 252.298615,307.926605 253.039536,308.088348 
	C259.043823,309.399139 264.482666,307.617645 269.864563,305.271729 
	C270.581421,304.959290 271.505951,305.123322 272.716522,305.105042 
	C259.789886,315.747742 236.869949,315.555389 221.299225,304.661743 
	C219.536667,303.428619 217.944839,301.951477 216.509323,300.300293 
	C218.159149,300.349213 219.573471,300.685364 220.987808,301.021515 
z"/>
<path fill="#DFF5FC" opacity="1.000000" stroke="none" 
	d="
M273.479645,305.071381 
	C273.142731,303.329834 273.142731,301.538849 273.142731,300.222504 
	C276.537262,298.778931 279.527435,297.507324 282.878479,296.220825 
	C282.826385,296.884094 282.413361,297.562256 281.907104,298.528046 
	C279.148071,300.884399 276.482300,302.953156 273.479645,305.071381 
z"/>
<path fill="#FCFBF0" opacity="1.000000" stroke="none" 
	d="
M220.946960,300.665222 
	C219.573471,300.685364 218.159149,300.349213 216.380035,299.987610 
	C215.670959,299.899048 215.399979,299.723022 214.991913,298.999023 
	C214.582382,298.311157 214.338013,298.114594 214.048401,297.974274 
	C214.048401,297.974274 213.996094,297.992249 213.905029,297.762512 
	C213.626831,297.274536 213.385513,297.085449 213.090042,296.965454 
	C213.090042,296.965454 213.030075,296.973969 213.038849,296.945160 
	C213.028183,295.873322 213.008728,294.830322 212.985504,293.396362 
	C215.623215,295.439911 218.264664,297.874420 220.946960,300.665222 
z"/>
<path fill="#DFF5FC" opacity="1.000000" stroke="none" 
	d="
M214.106110,298.225098 
	C214.338013,298.114594 214.582382,298.311157 214.902451,298.767822 
	C214.736877,298.806458 214.450348,298.641205 214.106110,298.225098 
z"/>
<path fill="#DFF5FC" opacity="1.000000" stroke="none" 
	d="
M213.158478,297.198792 
	C213.385513,297.085449 213.626831,297.274536 213.920334,297.739441 
	C213.685287,297.891235 213.418686,297.719879 213.158478,297.198792 
z"/>
<path fill="#DFF5FC" opacity="1.000000" stroke="none" 
	d="
M289.432617,287.083038 
	C290.091003,282.860687 290.912262,278.374451 291.987152,273.949890 
	C293.591278,267.347015 291.660400,261.617645 288.478790,257.312103 
	C289.160736,253.668335 289.658051,251.010986 290.204834,247.903320 
	C290.906647,248.871826 291.559021,250.290649 292.440002,251.950470 
	C295.688812,264.085449 295.420593,275.698547 289.432617,287.083038 
z"/>
<path fill="#DFF5FC" opacity="1.000000" stroke="none" 
	d="
M283.527039,296.084869 
	C283.482605,293.172455 283.247772,289.822174 287.862000,289.184937 
	C286.773346,291.446899 285.303925,293.697479 283.527039,296.084869 
z"/>
<path fill="#DFF5FC" opacity="1.000000" stroke="none" 
	d="
M288.410645,289.127716 
	C288.211487,288.923431 288.328430,288.627258 288.697571,288.189819 
	C288.788055,288.343170 288.713715,288.672241 288.410645,289.127716 
z"/>
<path fill="#DEF5FC" opacity="1.000000" stroke="none" 
	d="
M230.470978,212.689835 
	C227.046677,213.979996 225.573303,212.279190 225.578308,208.944504 
	C225.583984,205.155289 225.755569,201.366577 225.819489,197.577042 
	C225.850174,195.758041 226.156265,193.845581 225.715729,192.135696 
	C224.547668,187.602142 225.174911,184.980850 231.286652,186.984192 
	C230.487228,184.569656 229.920792,182.858856 229.026382,180.157471 
	C232.433273,181.742264 234.919174,182.898621 237.791245,184.123474 
	C226.767975,192.152695 224.361343,200.808044 230.470978,212.689835 
z"/>
<path fill="#DEF5FC" opacity="1.000000" stroke="none" 
	d="
M263.025146,223.903107 
	C257.211212,223.075073 251.407455,222.162369 245.578156,221.462265 
	C243.362793,221.196182 241.088715,221.418991 238.125443,221.418991 
	C237.809341,220.887405 237.066086,219.637451 236.270050,218.053589 
	C236.865082,217.863663 237.512878,218.007629 238.491577,218.187653 
	C242.333649,218.853394 245.843475,219.490738 249.356369,220.110779 
	C253.721848,220.881317 258.089844,221.637573 262.746399,222.891663 
	C263.032440,223.556595 263.028778,223.729843 263.025146,223.903107 
z"/>
<path fill="#DEF5FC" opacity="1.000000" stroke="none" 
	d="
M234.354401,216.487900 
	C233.260529,215.889221 232.017593,215.014130 230.894684,213.774078 
	C232.078247,214.343246 233.141800,215.277374 234.354401,216.487900 
z"/>
<path fill="#DEF5FC" opacity="1.000000" stroke="none" 
	d="
M236.140625,217.563568 
	C235.973953,217.665054 235.666229,217.542679 235.180862,217.243561 
	C235.335342,217.157806 235.667465,217.248779 236.140625,217.563568 
z"/>
<path fill="#D6F3FD" opacity="1.000000" stroke="none" 
	d="
M263.292145,224.054642 
	C263.028778,223.729843 263.032440,223.556595 263.044800,223.123535 
	C266.401794,224.254990 269.750092,225.646240 273.432556,227.155701 
	C275.254639,228.483795 276.742584,229.693665 278.520569,231.041260 
	C279.055145,231.469345 279.299683,231.759689 279.829773,232.127197 
	C280.175323,232.462509 280.322327,232.653900 280.818085,233.141998 
	C281.409058,233.713058 281.738312,233.920670 282.067535,234.128281 
	C282.142395,234.378113 282.276062,234.590988 282.721924,235.145660 
	C283.311798,235.711197 283.648315,235.898010 283.984833,236.084824 
	C283.984833,236.084824 283.941101,236.020538 283.907654,236.040359 
	C283.874207,236.060181 283.908630,236.539993 283.611908,236.774994 
	C282.898315,236.998444 282.481415,236.986893 282.064545,236.975342 
	C279.602722,235.032364 277.140930,233.089386 274.067719,230.870117 
	C270.985077,229.048920 268.513824,227.504028 266.042603,225.959137 
	C265.214783,225.374817 264.386963,224.790497 263.292145,224.054642 
z"/>
<path fill="#3276CA" opacity="1.000000" stroke="none" 
	d="
M281.936096,233.873077 
	C281.738312,233.920670 281.409058,233.713058 280.988953,233.219208 
	C281.200256,233.161270 281.502441,233.389572 281.936096,233.873077 
z"/>
<path fill="#3276CA" opacity="1.000000" stroke="none" 
	d="
M283.849487,235.838196 
	C283.648315,235.898010 283.311798,235.711197 282.890839,235.233398 
	C283.108978,235.158798 283.411560,235.375183 283.849487,235.838196 
z"/>
<path fill="#DFF5FC" opacity="1.000000" stroke="none" 
	d="
M282.111145,237.291031 
	C282.481415,236.986893 282.898315,236.998444 283.628540,237.014954 
	C284.580475,237.802277 285.219086,238.584625 286.041931,239.848297 
	C286.385101,240.567154 286.569580,240.782898 286.779602,240.976822 
	C287.557220,242.704910 288.334839,244.432999 289.136932,246.524475 
	C288.970032,246.908829 288.778625,246.929825 288.058838,246.742981 
	C286.025055,244.357697 284.519592,242.180267 283.014130,240.002823 
	C282.728668,239.204117 282.443207,238.405411 282.111145,237.291031 
z"/>
<path fill="#D6F3FD" opacity="1.000000" stroke="none" 
	d="
M286.758362,240.746017 
	C286.569580,240.782898 286.385101,240.567154 286.121704,240.143921 
	C286.328033,240.052307 286.567993,240.237961 286.758362,240.746017 
z"/>
<path fill="#F7FDFA" opacity="1.000000" stroke="none" 
	d="
M277.943512,170.499680 
	C276.811523,170.883804 275.803040,170.963516 274.414185,171.051132 
	C273.727020,166.833618 271.359375,162.161209 276.586334,159.129517 
	C277.837036,158.404114 279.249664,157.903870 280.372711,157.025162 
	C282.003174,155.749451 283.423798,154.208145 284.960846,152.809708 
	C286.368927,151.528610 287.812775,150.286774 289.632019,149.015701 
	C288.153809,153.149673 286.284424,157.295609 283.954559,161.557938 
	C279.665100,160.646957 280.176392,162.737808 281.044006,165.084656 
	C280.051697,166.788193 279.059357,168.491730 277.943512,170.499680 
z"/>
<path fill="#E1F6F8" opacity="1.000000" stroke="none" 
	d="
M178.917694,218.539246 
	C176.621552,221.008606 174.351135,223.120926 172.050842,225.585602 
	C171.140823,224.221863 169.489120,222.438583 169.630783,220.811462 
	C169.739243,219.565918 171.981918,218.268311 173.519272,217.455002 
	C174.929932,216.708710 176.666946,216.579254 178.619003,216.105988 
	C178.966370,216.750046 178.954880,217.466125 178.917694,218.539246 
z"/>
<path fill="#FCFBF0" opacity="1.000000" stroke="none" 
	d="
M170.704956,177.108582 
	C172.585602,179.131271 174.147232,181.283035 175.884949,183.717682 
	C173.767227,183.678802 171.473450,183.357040 169.179657,183.035278 
	C169.581757,181.102753 169.983841,179.170212 170.704956,177.108582 
z"/>
<path fill="#FCFBF0" opacity="1.000000" stroke="none" 
	d="
M265.894592,226.291656 
	C268.513824,227.504028 270.985077,229.048920 273.736877,230.791992 
	C271.643890,231.262024 269.206940,231.925064 266.936920,231.557480 
	C266.290802,231.452866 266.129974,228.351379 265.894592,226.291656 
z"/>
<path fill="#FCFBF0" opacity="1.000000" stroke="none" 
	d="
M282.772766,240.268921 
	C284.519592,242.180267 286.025055,244.357697 287.770874,246.765808 
	C286.106445,247.109894 284.201599,247.223312 282.296753,247.336731 
	C282.374969,245.069504 282.453186,242.802261 282.772766,240.268921 
z"/>
<path fill="#E2F6FC" opacity="1.000000" stroke="none" 
	d="
M278.455933,109.566208 
	C277.192657,109.613708 276.039490,109.365761 274.886322,109.117813 
	C275.086517,108.561493 275.286682,108.005173 275.486847,107.448853 
	C276.513245,108.056160 277.539612,108.663467 278.455933,109.566208 
z"/>
<path fill="#E1F6F8" opacity="1.000000" stroke="none" 
	d="
M184.684769,211.955597 
	C183.213684,213.335144 181.449478,214.578537 179.362015,215.899231 
	C180.757874,214.506866 180.446838,210.423111 184.684769,211.955597 
z"/>
<path fill="#E8F8FB" opacity="1.000000" stroke="none" 
	d="
M109.844742,173.054535 
	C108.920807,172.917236 108.203049,172.583908 107.485291,172.250580 
	C108.002502,171.730576 108.519714,171.210556 109.036926,170.690552 
	C109.374924,171.413193 109.712921,172.135849 109.844742,173.054535 
z"/>
<path fill="#E1F6F8" opacity="1.000000" stroke="none" 
	d="
M201.033905,212.806427 
	C199.107300,212.509247 197.337448,212.015778 195.307220,211.300812 
	C197.094788,211.589584 199.142731,212.099869 201.033905,212.806427 
z"/>
<path fill="#DFF5FC" opacity="1.000000" stroke="none" 
	d="
M243.433502,307.642731 
	C243.061279,307.689545 242.773315,307.631348 242.485352,307.573151 
	C242.560593,307.459290 242.661774,307.238190 242.706833,307.249054 
	C242.984177,307.316162 243.248856,307.435638 243.433502,307.642731 
z"/>
<path fill="#FEFFFE" opacity="1.000000" stroke="none" 
	d="
M281.333740,164.965179 
	C280.176392,162.737808 279.665100,160.646957 283.764587,161.852325 
	C283.231171,162.968765 282.427307,163.907227 281.333740,164.965179 
z"/>
</svg>